<svg width="31" height="30" viewBox="0 0 31 30" fill="none" xmlns="http://www.w3.org/2000/svg">
<path d="M15.5465 0C7.34764 0 0.701172 6.7157 0.701172 15C0.701172 23.2843 7.34764 30 15.5465 30C23.7454 30 30.3919 23.2843 30.3919 15C30.3919 6.7157 23.7454 0 15.5465 0ZM21.2101 7.63887L19.1568 7.63979C17.5467 7.63979 17.2353 8.41289 17.2353 9.54721V12.0485H21.0749L21.0731 15.9661H17.2356V26.0197H13.2308V15.9661H9.88297V12.0485H13.2308V9.15928C13.2308 5.80634 15.2583 3.98026 18.2182 3.98026L21.2104 3.98486V7.63887H21.2101Z" fill="white" fill-opacity="0.5"/>
</svg>
