<svg width="30" height="30" viewBox="0 0 30 30" fill="none" xmlns="http://www.w3.org/2000/svg">
<g clip-path="url(#clip0)">
<path d="M17.924 15C17.924 16.5857 16.6518 17.8711 15.0825 17.8711C13.5131 17.8711 12.241 16.5857 12.241 15C12.241 13.4143 13.5131 12.1289 15.0825 12.1289C16.6518 12.1289 17.924 13.4143 17.924 15Z" fill="white" fill-opacity="0.5"/>
<path d="M21.7277 9.92039C21.5911 9.5464 21.3732 9.20789 21.09 8.93002C20.815 8.64392 20.4802 8.42374 20.1098 8.28572C19.8095 8.16785 19.3582 8.02754 18.5271 7.98932C17.6281 7.94789 17.3585 7.93896 15.0824 7.93896C12.8061 7.93896 12.5365 7.94766 11.6377 7.98909C10.8066 8.02754 10.3551 8.16785 10.055 8.28572C9.68462 8.42374 9.34959 8.64392 9.07482 8.93002C8.79166 9.20789 8.57375 9.54617 8.43693 9.92039C8.32027 10.2239 8.18141 10.6801 8.14358 11.5198C8.10258 12.428 8.09375 12.7004 8.09375 15.0004C8.09375 17.3002 8.10258 17.5726 8.14358 18.481C8.18141 19.3208 8.32027 19.7767 8.43693 20.0802C8.57375 20.4545 8.79144 20.7927 9.07459 21.0706C9.34959 21.3567 9.68439 21.5769 10.0548 21.7149C10.3551 21.833 10.8066 21.9733 11.6377 22.0115C12.5365 22.053 12.8059 22.0617 15.0822 22.0617C17.3587 22.0617 17.6283 22.053 18.5269 22.0115C19.358 21.9733 19.8095 21.833 20.1098 21.7149C20.8533 21.4251 21.4409 20.8314 21.7277 20.0802C21.8443 19.7767 21.9832 19.3208 22.0212 18.481C22.0622 17.5726 22.0709 17.3002 22.0709 15.0004C22.0709 12.7004 22.0622 12.428 22.0212 11.5198C21.9834 10.6801 21.8446 10.2239 21.7277 9.92039ZM15.0824 19.4231C12.6647 19.4231 10.7049 17.4431 10.7049 15.0002C10.7049 12.5573 12.6647 10.5773 15.0824 10.5773C17.4999 10.5773 19.4597 12.5573 19.4597 15.0002C19.4597 17.4431 17.4999 19.4231 15.0824 19.4231ZM19.6328 11.4361C19.0678 11.4361 18.6098 10.9733 18.6098 10.4024C18.6098 9.83159 19.0678 9.36879 19.6328 9.36879C20.1977 9.36879 20.6558 9.83159 20.6558 10.4024C20.6555 10.9733 20.1977 11.4361 19.6328 11.4361Z" fill="white" fill-opacity="0.5"/>
<path d="M15.0824 0C6.88481 0 0.237061 6.717 0.237061 15C0.237061 23.283 6.88481 30 15.0824 30C23.28 30 29.9278 23.283 29.9278 15C29.9278 6.717 23.28 0 15.0824 0ZM23.5555 18.5511C23.5143 19.468 23.37 20.094 23.1593 20.6419C22.7164 21.7989 21.8113 22.7135 20.6662 23.161C20.1241 23.3739 19.5044 23.5194 18.5971 23.5613C17.6881 23.6032 17.3977 23.6133 15.0826 23.6133C12.7674 23.6133 12.4772 23.6032 11.5679 23.5613C10.6607 23.5194 10.0409 23.3739 9.49887 23.161C8.92985 22.9447 8.41474 22.6057 7.98888 22.1674C7.55531 21.7374 7.21983 21.2167 7.00577 20.6419C6.79511 20.0942 6.65081 19.468 6.60958 18.5513C6.56768 17.6326 6.55794 17.3392 6.55794 15C6.55794 12.6608 6.56768 12.3674 6.60936 11.4489C6.65058 10.532 6.79465 9.90601 7.00532 9.35806C7.21938 8.78334 7.55509 8.26263 7.98888 7.83257C8.41451 7.39426 8.92985 7.05528 9.49865 6.83899C10.0409 6.62613 10.6605 6.48056 11.5679 6.43867C12.477 6.39679 12.7674 6.38672 15.0824 6.38672C17.3975 6.38672 17.6879 6.39679 18.5969 6.4389C19.5044 6.48056 20.1239 6.62613 20.6662 6.83876C21.235 7.05505 21.7503 7.39426 22.1762 7.83257C22.6098 8.26286 22.9455 8.78334 23.1593 9.35806C23.3702 9.90601 23.5143 10.532 23.5557 11.4489C23.5972 12.3674 23.6069 12.6608 23.6069 15C23.6069 17.3392 23.5972 17.6326 23.5555 18.5511Z" fill="white" fill-opacity="0.5"/>
</g>
<defs>
<clipPath id="clip0">
<rect width="29.6907" height="30" fill="white" transform="translate(0.237061)"/>
</clipPath>
</defs>
</svg>
