<svg width="31" height="30" viewBox="0 0 31 30" fill="none" xmlns="http://www.w3.org/2000/svg">
<path d="M15.6291 0C7.43046 0 0.783691 6.7157 0.783691 15C0.783691 23.2843 7.43046 30 15.6291 30C23.8276 30 30.4744 23.2843 30.4744 15C30.4744 6.7157 23.8276 0 15.6291 0ZM23.1594 16.6223C23.8513 17.3052 24.5833 17.9478 25.2045 18.7013C25.4797 19.0346 25.7391 19.3792 25.9365 19.7669C26.2184 20.3196 25.9639 20.9257 25.4742 20.9586L22.4329 20.958C21.6474 21.0236 21.0223 20.7035 20.4953 20.1609C20.0746 19.7285 19.6843 19.2666 19.2791 18.8194C19.1136 18.6359 18.9392 18.4631 18.7315 18.3272C18.3169 18.0546 17.9566 18.1381 17.7191 18.5758C17.477 19.0211 17.4217 19.5146 17.3986 20.0102C17.3655 20.7348 17.1493 20.9242 16.4297 20.9583C14.8922 21.031 13.4333 20.7953 12.0774 20.0121C10.8813 19.3212 9.95547 18.3462 9.14873 17.2423C7.57778 15.0902 6.37466 12.7283 5.29364 10.2985C5.05035 9.7513 5.22834 9.45852 5.8258 9.44716C6.81843 9.42783 7.81105 9.43028 8.80368 9.44624C9.20765 9.45268 9.47495 9.68624 9.63016 10.0714C10.1666 11.4049 10.8242 12.6737 11.6482 13.8503C11.8678 14.1637 12.092 14.4761 12.4112 14.6974C12.7636 14.9417 13.0321 14.861 13.1982 14.4635C13.3045 14.2109 13.3504 13.9409 13.3735 13.6702C13.4524 12.743 13.4619 11.8162 13.3252 10.8927C13.2401 10.3148 12.9185 9.94158 12.3483 9.83233C12.058 9.77678 12.1005 9.66813 12.2417 9.50056C12.4868 9.21084 12.7165 9.03161 13.1754 9.03161L16.6117 9.031C17.1532 9.13841 17.2747 9.38394 17.3482 9.93514L17.3513 13.7936C17.3449 14.0069 17.4573 14.6391 17.8363 14.7787C18.1401 14.88 18.3406 14.6339 18.5222 14.4396C19.3462 13.556 19.9334 12.5131 20.4591 11.4338C20.6912 10.9577 20.8914 10.4652 21.0858 9.97166C21.2303 9.60675 21.4551 9.42721 21.8627 9.43335L25.1717 9.43734C25.2692 9.43734 25.3682 9.43826 25.4648 9.45514C26.0225 9.55151 26.1753 9.79396 26.0027 10.3436C25.7312 11.2073 25.2036 11.9266 24.6878 12.6479C24.135 13.4201 23.5455 14.1652 22.9981 14.9408C22.4951 15.6497 22.5349 16.0066 23.1594 16.6223Z" fill="white" fill-opacity="0.5"/>
</svg>
