<svg width="101" height="31" viewBox="0 0 101 31" fill="none" xmlns="http://www.w3.org/2000/svg">
<path d="M26.5201 30.9984L24.373 19.827H13.6019L12.7667 24.2486H21.0187L21.4757 26.375H10.2513L13.1695 11.0854H16.4844L15.6689 6.61365H9.84605L5.14417 30.9984H26.5201Z" fill="white"/>
<path d="M22.6804 0.0395508L28.6412 31H32.8331L27.8381 4.65374C27.1581 1.1278 23.6881 0.228181 22.6804 0.0395508Z" fill="white"/>
<path d="M20.606 0.00366211H4.77583L0.112134 24.4069L0.097352 24.5269C-0.551821 28.0819 2.22718 30.3323 3.06606 30.9206L8.19046 4.47539H17.2518L18.9258 13.2329H14.8928L14.0379 17.7046H23.9689L20.606 0.00366211Z" fill="white"/>
<path d="M59.8262 0.00146566H64.3285C64.3654 0.00146566 64.698 -0.0117253 65.1144 0.0410386C66.2526 0.183501 67.6483 0.732245 68.2223 3.50762L71.4324 20.71H67.9932L64.6956 3.15147H62.6975L59.4012 20.7086H55.9619L59.8262 0.00146566Z" fill="white"/>
<path d="M51.5454 20.7086H54.9846L51.1204 0.00146565H46.6181C46.5811 0.00146565 46.2485 -0.0117253 45.8322 0.0410385C44.694 0.183501 43.2983 0.732244 42.7243 3.50762L39.5166 20.7086H42.9559L44.1643 14.2741H50.3394L51.5454 20.7086ZM44.7901 10.9354L46.251 3.15146H48.249L49.71 10.9354H44.7901Z" fill="white"/>
<path d="M84.5575 10.0178C85.182 9.5825 85.6575 9.0509 85.9728 8.43489C86.3424 7.71598 86.5296 6.72402 86.5296 5.48934C86.5296 3.59644 86.0283 2.19028 85.0391 1.31308C84.061 0.445118 82.5779 0.00585938 80.6304 0.00585938H73.3405V20.713H80.8484C84.9258 20.713 86.9928 18.708 86.9928 14.7547C86.994 12.4476 86.1749 10.8554 84.5575 10.0178ZM76.7699 8.64858V3.27722H80.4678C82.2034 3.27722 83.0473 4.12672 83.0473 5.8732C83.0473 7.73972 82.2392 8.64726 80.5762 8.64726H76.7699V8.64858ZM83.4833 14.636C83.4833 15.6701 83.2554 16.4009 82.8046 16.8098C82.3451 17.228 81.6319 17.439 80.6858 17.439H76.7699V11.8619H80.6304C81.4557 11.8619 82.1505 12.073 82.695 12.4871C83.2185 12.8868 83.4833 13.6097 83.4833 14.636Z" fill="white"/>
<path d="M92.3612 17.3797V11.8909H99.1017V8.61824H92.3612V3.30756H100.667L100.566 3.01736C99.7386 0.636387 98.3306 0.110068 97.5644 0.00717838L88.9318 0.00585938V20.713H100.736V17.381H92.3612V17.3797Z" fill="white"/>
<path d="M41.3019 30.868V25.5375H39.4838V24.2817H44.6648V25.5375H42.8466V30.868H41.3019Z" fill="white"/>
<path d="M50.5431 26.3606C50.5431 26.668 50.4975 26.9595 50.4064 27.2365C50.3152 27.5135 50.1847 27.7457 50.0134 27.9317C49.9087 28.0464 49.7942 28.1533 49.6685 28.2496C49.5429 28.3459 49.4049 28.429 49.2534 28.4976C49.1019 28.5648 48.9368 28.6189 48.7594 28.6572C48.5821 28.6954 48.3825 28.7152 48.162 28.7152H47.3527V30.8693H45.808V24.2817H48.1965C48.5513 24.2817 48.858 24.316 49.1154 24.3859C49.3729 24.4559 49.6069 24.5653 49.8163 24.7157C50.0479 24.8806 50.2265 25.1009 50.3534 25.3766C50.4803 25.6523 50.5431 25.9807 50.5431 26.3606ZM48.9565 26.4015C48.9565 26.2155 48.9146 26.0559 48.8321 25.9214C48.7496 25.7868 48.6498 25.6945 48.5352 25.6444C48.3887 25.5771 48.2495 25.5375 48.1164 25.527C47.9834 25.5164 47.8023 25.5111 47.5732 25.5111H47.3539V27.4845H47.4611C47.6077 27.4845 47.7444 27.4832 47.8738 27.4806C48.0031 27.4779 48.1164 27.4674 48.2125 27.4502C48.295 27.4357 48.3825 27.4067 48.4749 27.3645C48.5673 27.3223 48.6387 27.2735 48.688 27.2207C48.7927 27.1112 48.8641 26.9978 48.9011 26.8804C48.9381 26.7603 48.9565 26.602 48.9565 26.4015Z" fill="white"/>
<path d="M51.2169 30.8693L53.295 24.2817H54.9801L57.0582 30.8693H55.4679L55.0836 29.5238H53.1497L52.7653 30.8693H51.2169ZM54.7449 28.3301L54.1166 26.1575L53.4884 28.3301H54.7449Z" fill="white"/>
<path d="M63.3701 30.8693H61.8254V27.9488H59.7227V30.8693H58.178V24.2817H59.7227V26.693H61.8254V24.2817H63.3701V30.8693Z" fill="white"/>
<path d="M67.8035 30.9893C66.8808 30.9893 66.1479 30.6912 65.6059 30.0937C65.0639 29.4961 64.7916 28.6572 64.7916 27.5742C64.7916 26.5295 65.0639 25.6971 65.6071 25.0772C66.1516 24.4559 66.8845 24.1459 67.8072 24.1459C68.0523 24.1459 68.2728 24.1604 68.4686 24.1907C68.6645 24.2197 68.8517 24.262 69.0304 24.3147C69.1708 24.3596 69.3235 24.4189 69.4886 24.4954C69.6537 24.5719 69.7879 24.6379 69.8889 24.6946V26.2657H69.7325C69.6586 26.1944 69.565 26.11 69.4516 26.0111C69.3383 25.9121 69.2102 25.8159 69.0673 25.7209C68.9244 25.6259 68.7667 25.5454 68.5943 25.4795C68.4218 25.4135 68.242 25.3792 68.0547 25.3792C67.8318 25.3792 67.6273 25.4175 67.4413 25.4927C67.2553 25.5679 67.0779 25.6984 66.9104 25.8844C66.7564 26.052 66.6295 26.2802 66.5322 26.5651C66.4349 26.8513 66.3856 27.189 66.3856 27.5782C66.3856 27.9884 66.4361 28.3327 66.5384 28.611C66.6406 28.8893 66.7736 29.1149 66.9387 29.2851C67.0988 29.45 67.2762 29.57 67.4733 29.6439C67.6704 29.7177 67.8663 29.7547 68.0621 29.7547C68.2654 29.7547 68.46 29.7191 68.6448 29.6465C68.8296 29.574 68.9848 29.4935 69.1117 29.4051C69.2496 29.3141 69.3703 29.2204 69.4751 29.1268C69.5798 29.0318 69.6709 28.9487 69.7473 28.8748H69.8877V30.4235C69.7744 30.4802 69.6438 30.5435 69.4948 30.616C69.3457 30.6886 69.193 30.7493 69.0365 30.7994C68.8431 30.8614 68.6633 30.9089 68.4957 30.9405C68.3294 30.9735 68.0979 30.9893 67.8035 30.9893Z" fill="white"/>
<path d="M76.7305 30.8689H74.8877L73.2395 28.2096H72.8515V30.8689H71.3068V24.2814H72.8515V26.967C73.0942 26.9552 73.2752 26.8984 73.3947 26.7942C73.5142 26.6913 73.6571 26.4645 73.8222 26.1123C73.869 26.0094 73.9232 25.8867 73.9848 25.7455C74.0464 25.6044 74.1006 25.4804 74.1486 25.3736C74.3272 24.9752 74.5453 24.6916 74.8039 24.5214C75.0626 24.3513 75.4014 24.2668 75.8227 24.2668C75.9606 24.2668 76.0752 24.2695 76.1651 24.2734C76.2563 24.2774 76.3265 24.28 76.3758 24.28V25.6915H76.021C75.8448 25.6915 75.6909 25.7495 75.5603 25.8669C75.4297 25.983 75.2967 26.2151 75.1612 26.5634C75.054 26.8404 74.953 27.0501 74.8569 27.1939C74.7621 27.3364 74.6734 27.434 74.5908 27.4841L76.7305 30.8689Z" fill="white"/>
<path d="M77.0767 30.8693L79.1547 24.2817H80.8399L82.9179 30.8693H81.3277L80.9433 29.5238H79.0094L78.6251 30.8693H77.0767ZM80.6046 28.3301L79.9764 26.1575L79.3481 28.3301H80.6046Z" fill="white"/>
<path d="M88.7729 26.3606C88.7729 26.668 88.7273 26.9595 88.6361 27.2365C88.545 27.5135 88.4144 27.7457 88.2432 27.9317C88.1385 28.0464 88.0239 28.1533 87.8983 28.2496C87.7726 28.3459 87.6347 28.429 87.4831 28.4976C87.3316 28.5648 87.1666 28.6189 86.9892 28.6572C86.8118 28.6954 86.6122 28.7152 86.3917 28.7152H85.5824V30.8693H84.0377V24.2817H86.4262C86.781 24.2817 87.0877 24.316 87.3452 24.3859C87.6026 24.4559 87.8367 24.5653 88.0461 24.7157C88.2777 24.8806 88.4563 25.1009 88.5832 25.3766C88.7088 25.6523 88.7729 25.9807 88.7729 26.3606ZM87.1863 26.4015C87.1863 26.2155 87.1444 26.0559 87.0619 25.9214C86.9793 25.7868 86.8795 25.6945 86.765 25.6444C86.6196 25.5771 86.4792 25.5375 86.3462 25.527C86.2131 25.5164 86.032 25.5111 85.8029 25.5111H85.5837V27.4845H85.6908C85.8362 27.4845 85.9742 27.4832 86.1035 27.4806C86.2328 27.4779 86.3462 27.4674 86.4422 27.4502C86.5248 27.4357 86.6122 27.4067 86.7046 27.3645C86.797 27.3223 86.8685 27.2735 86.9177 27.2207C87.0224 27.1112 87.0939 26.9978 87.1308 26.8804C87.1678 26.7603 87.1863 26.602 87.1863 26.4015Z" fill="white"/>
<path d="M94.2545 25.5388H91.6516V30.8693H90.1069V24.2817H94.2545V25.5388Z" fill="white"/>
<path d="M101 27.5714C101 28.6359 100.734 29.4736 100.203 30.0843C99.6721 30.695 98.9428 30.9998 98.0177 30.9998C97.0889 30.9998 96.3609 30.6911 95.8325 30.0724C95.304 29.4551 95.0392 28.6201 95.0392 27.5701C95.0392 26.5109 95.304 25.6746 95.8325 25.0599C96.3609 24.4452 97.0902 24.1378 98.0177 24.1378C98.9428 24.1378 99.6721 24.4438 100.203 25.0559C100.734 25.668 101 26.5069 101 27.5714ZM99.406 27.5661C99.406 27.1744 99.3678 26.8393 99.2927 26.5636C99.2163 26.2879 99.1153 26.0611 98.9896 25.8843C98.8578 25.7049 98.7076 25.5756 98.5413 25.4978C98.375 25.42 98.2013 25.3804 98.0227 25.3804C97.833 25.3804 97.6605 25.416 97.5065 25.4886C97.3525 25.5611 97.2035 25.6904 97.0606 25.8751C96.9337 26.0465 96.8315 26.2734 96.7526 26.557C96.6738 26.8406 96.6344 27.1783 96.6344 27.5701C96.6344 27.9737 96.6713 28.3101 96.7465 28.5766C96.8216 28.843 96.9226 29.0673 97.052 29.2467C97.1838 29.43 97.3341 29.5606 97.5028 29.6384C97.6704 29.7163 97.844 29.7558 98.0227 29.7558C98.205 29.7558 98.3811 29.7136 98.5511 29.6292C98.7223 29.5448 98.8689 29.4142 98.9933 29.2374C99.1251 29.0462 99.2274 28.8219 99.2988 28.5673C99.3703 28.3141 99.406 27.979 99.406 27.5661Z" fill="white"/>
</svg>
