<?xml version="1.0" encoding="utf-8"?>
<!-- Generator: Adobe Illustrator 23.0.1, SVG Export Plug-In . SVG Version: 6.00 Build 0)  -->
<svg version="1.1" id="Слой_1" xmlns="http://www.w3.org/2000/svg" xmlns:xlink="http://www.w3.org/1999/xlink" x="0px" y="0px"
	 viewBox="0 0 1658.52 260" style="enable-background:new 0 0 1658.52 260;" xml:space="preserve">
<style type="text/css">
	.st0{fill:#1F1F1D;}
	.st1{fill:url(#SVGID_1_);}
	.st2{fill:url(#SVGID_2_);}
	.st3{fill:url(#SVGID_3_);}
	.st4{fill:url(#SVGID_4_);}
	.st5{fill:url(#SVGID_5_);}
	.st6{fill:url(#SVGID_6_);}
	.st7{fill:url(#SVGID_7_);}
	.st8{fill:url(#SVGID_8_);}
	.st9{fill:url(#SVGID_9_);}
	.st10{fill:url(#SVGID_10_);}
	.st11{fill:url(#SVGID_11_);}
	.st12{fill:url(#SVGID_12_);}
	.st13{fill:url(#SVGID_13_);}
	.st14{fill:url(#SVGID_14_);}
	.st15{fill:url(#SVGID_15_);}
	.st16{fill:url(#SVGID_16_);}
	.st17{fill:url(#SVGID_17_);}
	.st18{fill:url(#SVGID_18_);}
	.st19{fill:url(#SVGID_19_);}
	.st20{fill:url(#SVGID_20_);}
	.st21{fill:url(#SVGID_21_);}
	.st22{fill:url(#SVGID_22_);}
	.st23{fill:url(#SVGID_23_);}
	.st24{fill:url(#SVGID_24_);}
	.st25{fill:url(#SVGID_25_);}
	.st26{fill:url(#SVGID_26_);}
	.st27{fill:url(#SVGID_27_);}
	.st28{fill:url(#SVGID_28_);}
	.st29{fill:url(#SVGID_29_);}
	.st30{fill:url(#SVGID_30_);}
	.st31{fill:url(#SVGID_31_);}
	.st32{fill:url(#SVGID_32_);}
	.st33{fill:url(#SVGID_33_);}
	.st34{fill:url(#SVGID_34_);}
	.st35{fill:url(#SVGID_35_);}
	.st36{fill:url(#SVGID_36_);}
	.st37{fill:url(#SVGID_37_);}
	.st38{fill:url(#SVGID_38_);}
	.st39{fill:url(#SVGID_39_);}
	.st40{fill:url(#SVGID_40_);}
	.st41{fill:url(#SVGID_41_);}
	.st42{fill:url(#SVGID_42_);}
	.st43{fill:url(#SVGID_43_);}
	.st44{fill:url(#SVGID_44_);}
	.st45{fill:url(#SVGID_45_);}
	.st46{fill:url(#SVGID_46_);}
	.st47{fill:url(#SVGID_47_);}
	.st48{fill:url(#SVGID_48_);}
	.st49{fill:url(#SVGID_49_);}
	.st50{fill:url(#SVGID_50_);}
	.st51{fill:url(#SVGID_51_);}
	.st52{fill:url(#SVGID_52_);}
	.st53{fill:url(#SVGID_53_);}
	.st54{fill:url(#SVGID_54_);}
	.st55{fill:url(#SVGID_55_);}
	.st56{fill:url(#SVGID_56_);}
	.st57{fill:url(#SVGID_57_);}
	.st58{fill:url(#SVGID_58_);}
	.st59{fill:url(#SVGID_59_);}
	.st60{fill:url(#SVGID_60_);}
	.st61{fill:url(#SVGID_61_);}
	.st62{fill:url(#SVGID_62_);}
	.st63{fill:url(#SVGID_63_);}
	.st64{fill:url(#SVGID_64_);}
	.st65{fill:url(#SVGID_65_);}
	.st66{fill:url(#SVGID_66_);}
	.st67{fill:url(#SVGID_67_);}
	.st68{fill:url(#SVGID_68_);}
	.st69{fill:url(#SVGID_69_);}
	.st70{fill:url(#SVGID_70_);}
	.st71{fill:url(#SVGID_71_);}
	.st72{fill:url(#SVGID_72_);}
	.st73{fill:#2B2522;}
	.st74{fill:#FFFFFF;}
	.st75{fill:#2B2522;stroke:#2B2522;stroke-width:3;stroke-miterlimit:10;}
	.st76{fill:#007036;}
	.st77{fill:none;stroke:#007036;stroke-width:11;stroke-miterlimit:10;}
	.st78{fill:#0087A8;}
	.st79{fill:none;stroke:#0087A8;stroke-width:11;stroke-miterlimit:10;}
	.st80{fill:#006160;}
	.st81{fill:none;stroke:#006160;stroke-width:11;stroke-miterlimit:10;}
	.st82{fill:#004380;}
</style>
<g>
	<g>
		<g>
			<polygon class="st76" points="227.79,247.5 210.36,162.81 122.92,162.81 116.14,196.33 183.13,196.33 186.84,212.45 
				95.72,212.45 119.41,96.54 146.32,96.54 139.7,62.64 92.43,62.64 54.26,247.5 			"/>
			<path class="st76" d="M196.62,12.79l48.39,234.71h34.03L238.49,47.77h0C232.97,21.04,204.8,14.22,196.62,12.79z"/>
			<path class="st76" d="M179.78,12.5H51.27l-37.86,185l-0.12,0.91c-5.27,26.95,17.29,44.01,24.1,48.47L78.99,46.4h73.56
				l13.59,66.39H133.4l-6.94,33.9h80.62L179.78,12.5z"/>
		</g>
	</g>
	<g>
		<g>
			<path class="st76" d="M498.17,12.51h36.55c0.3,0,3-0.1,6.38,0.3c9.24,1.08,20.57,5.24,25.23,26.28l26.06,130.41h-27.92
				L537.7,36.39h-16.22l-26.76,133.1h-27.92L498.17,12.51z"/>
			<path class="st76" d="M430.95,169.49h27.92L427.5,12.51h-36.55c-0.3,0-3-0.1-6.38,0.3c-9.24,1.08-20.57,5.24-25.23,26.28
				L333.3,169.49h27.92l9.81-48.78h50.13L430.95,169.49z M376.11,95.4l11.86-59.01h16.22l11.86,59.01H376.11z"/>
			<path class="st76" d="M698.94,88.42c5.07-3.3,8.93-7.33,11.49-12c3-5.45,4.52-12.97,4.52-22.33c0-14.35-4.07-25.01-12.1-31.66
				c-7.94-6.58-19.98-9.91-35.79-9.91h-59.18v156.98h60.95c33.1,0,49.88-15.2,49.88-45.17C718.72,106.84,712.07,94.77,698.94,88.42z
				 M635.72,78.04V37.32h30.02c14.09,0,20.94,6.44,20.94,19.68c0,14.15-6.56,21.03-20.06,21.03H635.72z M690.22,123.43
				c0,7.84-1.85,13.38-5.51,16.48c-3.73,3.17-9.52,4.77-17.2,4.77h-31.79V102.4h31.34c6.7,0,12.34,1.6,16.76,4.74
				C688.07,110.17,690.22,115.65,690.22,123.43z"/>
			<path class="st76" d="M762.29,144.23v-41.61h54.72V77.81h-54.72V37.55h67.43l-0.82-2.2c-6.72-18.05-18.15-22.04-24.37-22.82
				l-70.08-0.01v156.98h95.83v-25.26H762.29z"/>
		</g>
		<g>
			<g>
				<path class="st76" d="M347.79,246.46v-40.41h-14.76v-9.52h42.06v9.52h-14.76v40.41H347.79z"/>
				<path class="st76" d="M422.81,212.28c0,2.33-0.37,4.54-1.11,6.64c-0.74,2.1-1.8,3.86-3.19,5.27c-0.85,0.87-1.78,1.68-2.8,2.41
					s-2.14,1.36-3.37,1.88c-1.23,0.51-2.57,0.92-4.01,1.21c-1.44,0.29-3.06,0.44-4.85,0.44h-6.57v16.33h-12.54v-49.94h19.39
					c2.88,0,5.37,0.26,7.46,0.79c2.09,0.53,3.99,1.36,5.69,2.5c1.88,1.25,3.33,2.92,4.36,5.01
					C422.3,206.91,422.81,209.4,422.81,212.28z M409.93,212.59c0-1.41-0.34-2.62-1.01-3.64s-1.48-1.72-2.41-2.1
					c-1.19-0.51-2.32-0.81-3.4-0.89c-1.08-0.08-2.55-0.12-4.41-0.12h-1.78v14.96h0.87c1.19,0,2.3-0.01,3.35-0.03
					c1.05-0.02,1.97-0.1,2.75-0.23c0.67-0.11,1.38-0.33,2.13-0.65c0.75-0.32,1.33-0.69,1.73-1.09c0.85-0.83,1.43-1.69,1.73-2.58
					C409.78,215.31,409.93,214.11,409.93,212.59z"/>
				<path class="st76" d="M428.28,246.46l16.87-49.94h13.68l16.87,49.94h-12.91l-3.12-10.2h-15.7l-3.12,10.2H428.28z M456.92,227.21
					l-5.1-16.47l-5.1,16.47H456.92z"/>
				<path class="st76" d="M526.94,246.46H514.4v-22.14h-17.07v22.14h-12.54v-49.94h12.54v18.28h17.07v-18.28h12.54V246.46z"/>
				<path class="st76" d="M562.93,247.43c-7.49,0-13.44-2.26-17.84-6.79c-4.4-4.53-6.61-10.89-6.61-19.1
					c0-7.92,2.21-14.23,6.62-18.93c4.42-4.71,10.37-7.06,17.86-7.06c1.99,0,3.78,0.11,5.37,0.34c1.59,0.22,3.11,0.54,4.56,0.94
					c1.14,0.34,2.38,0.79,3.72,1.37c1.34,0.58,2.43,1.08,3.25,1.51v11.91h-1.27c-0.6-0.54-1.36-1.18-2.28-1.93
					c-0.92-0.75-1.96-1.48-3.12-2.2c-1.16-0.72-2.44-1.33-3.84-1.83c-1.4-0.5-2.86-0.76-4.38-0.76c-1.81,0-3.47,0.29-4.98,0.86
					c-1.51,0.57-2.95,1.56-4.31,2.97c-1.25,1.27-2.28,3-3.07,5.16c-0.79,2.17-1.19,4.73-1.19,7.68c0,3.11,0.41,5.72,1.24,7.83
					c0.83,2.11,1.91,3.82,3.25,5.11c1.3,1.25,2.74,2.16,4.34,2.72c1.6,0.56,3.19,0.84,4.78,0.84c1.65,0,3.23-0.27,4.73-0.82
					c1.5-0.55,2.76-1.16,3.79-1.83c1.12-0.69,2.1-1.4,2.95-2.11c0.85-0.72,1.59-1.35,2.21-1.91h1.14v11.74
					c-0.92,0.43-1.98,0.91-3.19,1.46c-1.21,0.55-2.45,1.01-3.72,1.39c-1.57,0.47-3.03,0.83-4.39,1.07
					C567.2,247.31,565.32,247.43,562.93,247.43z"/>
				<path class="st76" d="M635.4,246.46h-14.96l-13.38-20.16h-3.15v20.16h-12.54v-49.94h12.54v20.36c1.97-0.09,3.44-0.52,4.41-1.31
					c0.97-0.78,2.13-2.5,3.47-5.17c0.38-0.78,0.82-1.71,1.32-2.78c0.5-1.07,0.94-2.01,1.33-2.82c1.45-3.02,3.22-5.17,5.32-6.46
					s4.85-1.93,8.27-1.93c1.12,0,2.05,0.02,2.78,0.05c0.74,0.03,1.31,0.05,1.71,0.05v10.7h-2.88c-1.43,0-2.68,0.44-3.74,1.33
					c-1.06,0.88-2.14,2.64-3.24,5.28c-0.87,2.1-1.69,3.69-2.47,4.78c-0.77,1.08-1.49,1.82-2.16,2.2L635.4,246.46z"/>
				<path class="st76" d="M638.21,246.46l16.87-49.94h13.68l16.87,49.94h-12.91l-3.12-10.2h-15.7l-3.12,10.2H638.21z M666.85,227.21
					l-5.1-16.47l-5.1,16.47H666.85z"/>
				<path class="st76" d="M733.16,212.28c0,2.33-0.37,4.54-1.11,6.64c-0.74,2.1-1.8,3.86-3.19,5.27c-0.85,0.87-1.78,1.68-2.8,2.41
					s-2.14,1.36-3.37,1.88c-1.23,0.51-2.57,0.92-4.01,1.21c-1.44,0.29-3.06,0.44-4.85,0.44h-6.57v16.33h-12.54v-49.94h19.39
					c2.88,0,5.37,0.26,7.46,0.79c2.09,0.53,3.99,1.36,5.69,2.5c1.88,1.25,3.33,2.92,4.36,5.01
					C732.64,206.91,733.16,209.4,733.16,212.28z M720.28,212.59c0-1.41-0.34-2.62-1.01-3.64s-1.48-1.72-2.41-2.1
					c-1.18-0.51-2.32-0.81-3.4-0.89c-1.08-0.08-2.55-0.12-4.41-0.12h-1.78v14.96h0.87c1.18,0,2.3-0.01,3.35-0.03
					c1.05-0.02,1.97-0.1,2.75-0.23c0.67-0.11,1.38-0.33,2.13-0.65c0.75-0.32,1.33-0.69,1.73-1.09c0.85-0.83,1.43-1.69,1.73-2.58
					C720.13,215.31,720.28,214.11,720.28,212.59z"/>
				<path class="st76" d="M777.66,206.05h-21.13v40.41h-12.54v-49.94h33.67V206.05z"/>
				<path class="st76" d="M832.42,221.51c0,8.07-2.16,14.42-6.47,19.05s-10.23,6.94-17.74,6.94c-7.54,0-13.45-2.34-17.74-7.03
					c-4.29-4.68-6.44-11.01-6.44-18.97c0-8.03,2.15-14.37,6.44-19.03c4.29-4.66,10.21-6.99,17.74-6.99c7.51,0,13.43,2.32,17.74,6.96
					C830.26,207.08,832.42,213.44,832.42,221.51z M819.48,221.47c0-2.97-0.31-5.51-0.92-7.6c-0.62-2.09-1.44-3.81-2.46-5.15
					c-1.07-1.36-2.29-2.34-3.64-2.93c-1.35-0.59-2.76-0.89-4.21-0.89c-1.54,0-2.94,0.27-4.19,0.82c-1.25,0.55-2.46,1.53-3.62,2.93
					c-1.03,1.3-1.86,3.02-2.5,5.17c-0.64,2.15-0.96,4.71-0.96,7.68c0,3.06,0.3,5.61,0.91,7.63s1.43,3.72,2.48,5.08
					c1.07,1.39,2.29,2.38,3.66,2.97c1.36,0.59,2.77,0.89,4.22,0.89c1.48,0,2.91-0.32,4.29-0.96c1.39-0.64,2.58-1.63,3.59-2.97
					c1.07-1.45,1.9-3.15,2.48-5.08C819.19,227.14,819.48,224.6,819.48,221.47z"/>
			</g>
		</g>
	</g>
	<g>
		<g>
			<path class="st76" d="M967.19,63.44V23.06h-14.75v-9.52h42.02v9.52h-14.75v40.38H967.19z"/>
			<path class="st76" d="M1038.04,29.29c0,2.32-0.37,4.54-1.11,6.64c-0.74,2.1-1.8,3.85-3.18,5.26c-0.85,0.87-1.78,1.68-2.8,2.41
				c-1.02,0.74-2.14,1.36-3.37,1.88s-2.56,0.92-4,1.21c-1.44,0.29-3.05,0.44-4.84,0.44h-6.57v16.32h-12.53v-49.9H1019
				c2.88,0,5.37,0.26,7.46,0.79c2.09,0.53,3.98,1.36,5.68,2.5c1.88,1.25,3.33,2.92,4.36,5.01
				C1037.53,23.92,1038.04,26.41,1038.04,29.29z M1025.17,29.59c0-1.41-0.34-2.62-1.01-3.64c-0.67-1.02-1.47-1.71-2.41-2.09
				c-1.19-0.51-2.32-0.81-3.4-0.89c-1.08-0.08-2.55-0.12-4.41-0.12h-1.78V37.8h0.87c1.18,0,2.3-0.01,3.35-0.03
				c1.05-0.02,1.97-0.1,2.75-0.23c0.67-0.11,1.38-0.33,2.13-0.65c0.75-0.32,1.32-0.69,1.73-1.09c0.85-0.83,1.43-1.69,1.73-2.58
				C1025.02,32.32,1025.17,31.11,1025.17,29.59z"/>
			<path class="st76" d="M1039.38,63.44l16.86-49.9h13.67l16.86,49.9h-12.9l-3.12-10.19h-15.68l-3.12,10.19H1039.38z M1068,44.2
				l-5.09-16.45l-5.09,16.45H1068z"/>
			<path class="st76" d="M1133.85,63.44h-12.53V41.32h-17.06v22.12h-12.53v-49.9h12.53V31.8h17.06V13.54h12.53V63.44z"/>
			<path class="st76" d="M1165.69,64.41c-7.49,0-13.43-2.26-17.83-6.79c-4.4-4.52-6.6-10.89-6.6-19.09c0-7.91,2.21-14.21,6.62-18.92
				c4.41-4.7,10.36-7.05,17.85-7.05c1.99,0,3.77,0.11,5.36,0.34c1.59,0.22,3.1,0.54,4.56,0.94c1.14,0.34,2.38,0.79,3.72,1.37
				c1.34,0.58,2.42,1.08,3.25,1.51v11.9h-1.27c-0.6-0.54-1.36-1.18-2.28-1.93c-0.92-0.75-1.96-1.48-3.12-2.2s-2.44-1.32-3.84-1.83
				c-1.4-0.5-2.85-0.75-4.37-0.75c-1.81,0-3.47,0.29-4.98,0.85c-1.51,0.57-2.94,1.56-4.31,2.97c-1.25,1.27-2.27,2.99-3.07,5.16
				c-0.79,2.17-1.19,4.73-1.19,7.67c0,3.11,0.41,5.71,1.24,7.83c0.83,2.11,1.91,3.81,3.25,5.11c1.29,1.25,2.74,2.16,4.34,2.71
				c1.6,0.56,3.19,0.84,4.78,0.84c1.65,0,3.23-0.27,4.73-0.82c1.5-0.55,2.76-1.16,3.79-1.83c1.12-0.69,2.1-1.4,2.95-2.11
				c0.85-0.71,1.59-1.35,2.21-1.91h1.14v11.73c-0.92,0.43-1.98,0.91-3.18,1.46c-1.21,0.55-2.45,1.01-3.72,1.39
				c-1.56,0.47-3.03,0.83-4.39,1.07C1169.95,64.29,1168.08,64.41,1165.69,64.41z"/>
			<path class="st76" d="M1232.11,63.44h-12.53V23.06h-17.06v40.38h-12.53v-49.9h42.12V63.44z"/>
			<path class="st76" d="M1287.87,38.51c0,8.07-2.16,14.41-6.47,19.03c-4.31,4.62-10.22,6.94-17.73,6.94
				c-7.53,0-13.44-2.34-17.73-7.02c-4.29-4.68-6.43-11-6.43-18.95c0-8.02,2.14-14.36,6.43-19.02c4.29-4.66,10.2-6.99,17.73-6.99
				c7.51,0,13.42,2.32,17.73,6.95C1285.72,24.09,1287.87,30.44,1287.87,38.51z M1274.94,38.47c0-2.97-0.31-5.5-0.92-7.59
				c-0.61-2.09-1.44-3.8-2.46-5.14c-1.07-1.36-2.28-2.34-3.64-2.93c-1.35-0.59-2.75-0.89-4.21-0.89c-1.54,0-2.94,0.27-4.19,0.82
				c-1.25,0.55-2.46,1.53-3.62,2.93c-1.03,1.3-1.86,3.02-2.5,5.16c-0.64,2.14-0.96,4.7-0.96,7.67c0,3.06,0.3,5.6,0.91,7.62
				c0.6,2.02,1.43,3.71,2.48,5.08c1.07,1.39,2.29,2.37,3.65,2.97c1.36,0.59,2.77,0.89,4.22,0.89c1.47,0,2.9-0.32,4.29-0.95
				c1.39-0.64,2.58-1.63,3.59-2.97c1.07-1.45,1.9-3.14,2.48-5.08C1274.65,44.13,1274.94,41.6,1274.94,38.47z"/>
			<path class="st76" d="M1333.68,29.29c0,2.32-0.37,4.54-1.11,6.64c-0.74,2.1-1.8,3.85-3.18,5.26c-0.85,0.87-1.78,1.68-2.8,2.41
				c-1.02,0.74-2.14,1.36-3.37,1.88c-1.23,0.51-2.56,0.92-4.01,1.21c-1.44,0.29-3.05,0.44-4.84,0.44h-6.57v16.32h-12.53v-49.9h19.37
				c2.88,0,5.37,0.26,7.46,0.79c2.09,0.53,3.98,1.36,5.68,2.5c1.88,1.25,3.33,2.92,4.36,5.01
				C1333.17,23.92,1333.68,26.41,1333.68,29.29z M1320.82,29.59c0-1.41-0.34-2.62-1.01-3.64c-0.67-1.02-1.47-1.71-2.41-2.09
				c-1.18-0.51-2.32-0.81-3.4-0.89c-1.08-0.08-2.55-0.12-4.41-0.12h-1.78V37.8h0.87c1.18,0,2.3-0.01,3.35-0.03s1.97-0.1,2.75-0.23
				c0.67-0.11,1.38-0.33,2.13-0.65c0.75-0.32,1.32-0.69,1.73-1.09c0.85-0.83,1.42-1.69,1.73-2.58
				C1320.67,32.32,1320.82,31.11,1320.82,29.59z"/>
			<path class="st76" d="M1349.97,63.44V23.06h-14.75v-9.52h42.02v9.52h-14.75v40.38H1349.97z"/>
			<path class="st76" d="M1424.54,63.44H1412V41.32h-17.06v22.12h-12.53v-49.9h12.53V31.8H1412V13.54h12.53V63.44z"/>
			<path class="st76" d="M1480.3,38.51c0,8.07-2.16,14.41-6.47,19.03s-10.22,6.94-17.73,6.94c-7.53,0-13.44-2.34-17.73-7.02
				s-6.43-11-6.43-18.95c0-8.02,2.14-14.36,6.43-19.02c4.29-4.66,10.2-6.99,17.73-6.99c7.51,0,13.42,2.32,17.73,6.95
				S1480.3,30.44,1480.3,38.51z M1467.36,38.47c0-2.97-0.31-5.5-0.92-7.59c-0.61-2.09-1.44-3.8-2.46-5.14
				c-1.07-1.36-2.28-2.34-3.64-2.93c-1.35-0.59-2.75-0.89-4.21-0.89c-1.54,0-2.94,0.27-4.19,0.82s-2.46,1.53-3.62,2.93
				c-1.03,1.3-1.86,3.02-2.5,5.16s-0.95,4.7-0.95,7.67c0,3.06,0.3,5.6,0.9,7.62c0.6,2.02,1.43,3.71,2.48,5.08
				c1.07,1.39,2.29,2.37,3.65,2.97c1.36,0.59,2.77,0.89,4.22,0.89c1.47,0,2.9-0.32,4.29-0.95c1.39-0.64,2.58-1.63,3.59-2.97
				c1.07-1.45,1.9-3.14,2.48-5.08C1467.08,44.13,1467.36,41.6,1467.36,38.47z"/>
			<path class="st76" d="M1508.45,46.08h-22.22v-9.32h22.22V46.08z"/>
		</g>
		<g>
			<path class="st76" d="M994.14,129.28c0,8.4-2.24,14.94-6.72,19.62c-4.48,4.68-10.54,7.02-18.18,7.02c-3.57,0-6.89-0.46-9.94-1.37
				c-3.05-0.92-5.33-1.74-6.85-2.48v-11.29h1.17c0.42,0.38,1.14,0.97,2.16,1.76c1.02,0.79,2.02,1.45,3,1.96
				c1.3,0.67,2.69,1.22,4.17,1.64c1.49,0.43,3.12,0.64,4.91,0.64c1.41,0,2.88-0.2,4.42-0.6s2.96-1.11,4.26-2.11
				c1.34-1.05,2.47-2.39,3.4-4.02c0.93-1.63,1.51-3.77,1.76-6.4h-19.87v-9.52h19.6c-0.33-1.97-0.92-3.64-1.74-5.01
				c-0.83-1.37-1.85-2.51-3.08-3.4c-1.21-0.87-2.5-1.5-3.87-1.89c-1.37-0.39-2.78-0.59-4.21-0.59c-1.72,0-3.3,0.22-4.74,0.65
				c-1.44,0.44-2.8,0.99-4.07,1.66c-1.23,0.67-2.29,1.37-3.18,2.09c-0.89,0.73-1.6,1.3-2.11,1.73h-1.31v-11.39
				c2.14-1.05,4.65-1.96,7.51-2.73c2.86-0.77,6.02-1.16,9.48-1.16c7.33,0,13.16,2.26,17.51,6.79
				C991.96,115.39,994.14,121.53,994.14,129.28z"/>
			<path class="st76" d="M1045.55,154.95h-14.95l-13.37-20.14h-3.15v20.14h-12.53v-49.9h12.53v20.34c1.97-0.09,3.43-0.52,4.41-1.31
				s2.13-2.5,3.47-5.16c0.38-0.78,0.82-1.71,1.32-2.78s0.94-2.01,1.32-2.82c1.45-3.02,3.22-5.17,5.31-6.45
				c2.09-1.29,4.84-1.93,8.26-1.93c1.12,0,2.04,0.02,2.78,0.05c0.74,0.03,1.31,0.05,1.71,0.05v10.69h-2.88
				c-1.43,0-2.68,0.44-3.74,1.32c-1.06,0.88-2.14,2.64-3.23,5.28c-0.87,2.1-1.69,3.69-2.46,4.78c-0.77,1.08-1.49,1.82-2.16,2.2
				L1045.55,154.95z"/>
			<path class="st76" d="M1071.12,155.92c-7.48,0-13.43-2.26-17.83-6.79c-4.4-4.52-6.6-10.89-6.6-19.09
				c0-7.91,2.21-14.21,6.62-18.92c4.41-4.7,10.36-7.05,17.85-7.05c1.99,0,3.78,0.11,5.36,0.34c1.59,0.22,3.11,0.54,4.56,0.94
				c1.14,0.34,2.38,0.79,3.72,1.37c1.34,0.58,2.42,1.08,3.25,1.51v11.9h-1.27c-0.6-0.54-1.36-1.18-2.28-1.93
				c-0.92-0.75-1.96-1.48-3.12-2.2c-1.16-0.71-2.44-1.32-3.84-1.83c-1.4-0.5-2.85-0.75-4.37-0.75c-1.81,0-3.47,0.29-4.98,0.85
				c-1.51,0.57-2.94,1.56-4.31,2.97c-1.25,1.27-2.27,2.99-3.07,5.16c-0.79,2.17-1.19,4.73-1.19,7.67c0,3.11,0.41,5.71,1.24,7.83
				c0.83,2.11,1.91,3.81,3.25,5.11c1.3,1.25,2.74,2.16,4.34,2.71c1.6,0.56,3.19,0.84,4.78,0.84c1.65,0,3.23-0.27,4.72-0.82
				c1.5-0.55,2.76-1.16,3.79-1.83c1.12-0.69,2.1-1.4,2.95-2.11c0.85-0.71,1.59-1.35,2.21-1.91h1.14v11.73
				c-0.92,0.43-1.98,0.91-3.18,1.46c-1.21,0.55-2.45,1.01-3.72,1.39c-1.56,0.47-3.03,0.83-4.39,1.07
				C1075.38,155.8,1073.51,155.92,1071.12,155.92z"/>
			<path class="st76" d="M1137.54,154.95H1125v-40.38h-17.06v40.38h-12.53v-49.9h42.13V154.95z"/>
			<path class="st76" d="M1147.86,154.95v-49.9h33.75v9.52h-21.28v8.75h19.6v9.52h-19.6v12.6h21.28v9.52H1147.86z"/>
			<path class="st76" d="M1236.2,166.41h-11.5v-11.63h-27.88v11.63h-11.5V145.4h3.35c2.35-4.87,4.2-10.8,5.56-17.78
				c1.36-6.98,2.04-14.5,2.04-22.57h35.19v40.35h4.73V166.41z M1218.94,145.4v-30.83h-10.93c-0.42,6.03-1.26,11.69-2.51,16.97
				c-1.25,5.28-2.83,9.9-4.73,13.86H1218.94z"/>
			<path class="st76" d="M1285.83,154.95h-12.33v-32.88l-19.17,32.88h-11.6v-49.9h12.33v29.72l17.73-29.72h13.04V154.95z"/>
			<path class="st76" d="M1342.7,166.41h-11.49v-11.46h-35.26v-49.9h12.53v40.41h16.96v-40.41h12.53v40.41h4.72V166.41z"/>
			<path class="st76" d="M1392.33,154.95H1380v-32.88l-19.17,32.88h-11.6v-49.9h12.33v29.72l17.73-29.72h13.04V154.95z"/>
			<path class="st76" d="M1447.89,130.02c0,8.07-2.16,14.41-6.47,19.04c-4.31,4.62-10.22,6.94-17.73,6.94
				c-7.53,0-13.44-2.34-17.73-7.02s-6.43-11-6.43-18.95c0-8.02,2.14-14.36,6.43-19.02c4.29-4.66,10.2-6.99,17.73-6.99
				c7.51,0,13.42,2.32,17.73,6.95C1445.74,115.6,1447.89,121.95,1447.89,130.02z M1434.96,129.98c0-2.97-0.31-5.5-0.92-7.59
				c-0.61-2.09-1.44-3.8-2.46-5.14c-1.07-1.36-2.28-2.34-3.64-2.93c-1.35-0.59-2.75-0.89-4.21-0.89c-1.54,0-2.94,0.27-4.19,0.82
				c-1.25,0.55-2.46,1.53-3.62,2.93c-1.03,1.3-1.86,3.02-2.5,5.16c-0.64,2.14-0.95,4.7-0.95,7.67c0,3.06,0.3,5.6,0.9,7.62
				c0.6,2.02,1.43,3.71,2.48,5.08c1.07,1.39,2.29,2.37,3.65,2.97c1.36,0.59,2.77,0.89,4.22,0.89c1.47,0,2.9-0.32,4.29-0.95
				c1.39-0.64,2.58-1.63,3.59-2.97c1.07-1.45,1.9-3.14,2.48-5.08C1434.67,135.64,1434.96,133.11,1434.96,129.98z"/>
			<path class="st76" d="M1497.43,154.95h-12.53v-22.12h-17.06v22.12h-12.53v-49.9h12.53v18.26h17.06v-18.26h12.53V154.95z"/>
			<path class="st76" d="M1549.87,154.95h-12.53v-22.12h-17.06v22.12h-12.53v-49.9h12.53v18.26h17.06v-18.26h12.53V154.95z"/>
			<path class="st76" d="M1554.83,154.95l16.86-49.9h13.67l16.86,49.9h-12.9l-3.12-10.19h-15.68l-3.12,10.19H1554.83z
				 M1583.45,135.71l-5.09-16.45l-5.09,16.45H1583.45z"/>
			<path class="st76" d="M1646.02,154.95h-12.47v-18.3h-4.72l-12.57,18.3h-14.88l14.88-20.68c-3.06-1.32-5.42-3.17-7.09-5.56
				c-1.66-2.39-2.5-5.47-2.5-9.25c0-2.55,0.56-4.77,1.69-6.67c1.13-1.9,2.56-3.45,4.31-4.66c1.52-1.05,3.37-1.83,5.55-2.33
				c2.18-0.5,4.68-0.75,7.49-0.75h20.31V154.95z M1633.55,127.67v-13.44h-4.02c-1.94,0-3.44,0.06-4.49,0.18
				c-1.05,0.12-2.07,0.55-3.05,1.29c-0.76,0.56-1.34,1.29-1.74,2.2c-0.4,0.91-0.6,1.9-0.6,3c0,1.14,0.21,2.16,0.64,3.07
				c0.42,0.9,1.02,1.65,1.78,2.23c0.85,0.67,1.85,1.08,3,1.24c1.15,0.16,2.66,0.23,4.54,0.23H1633.55z"/>
		</g>
		<g>
			<path class="st76" d="M996.45,246.46H981.5l-13.37-20.14h-3.15v20.14h-12.53v-49.9h12.53v20.34c1.97-0.09,3.43-0.52,4.41-1.31
				c0.97-0.78,2.13-2.5,3.47-5.16c0.38-0.78,0.82-1.71,1.32-2.78c0.5-1.07,0.94-2.01,1.32-2.82c1.45-3.02,3.22-5.17,5.31-6.45
				s4.84-1.93,8.26-1.93c1.12,0,2.04,0.02,2.78,0.05c0.74,0.03,1.31,0.05,1.71,0.05v10.69h-2.88c-1.43,0-2.68,0.44-3.74,1.32
				c-1.06,0.88-2.14,2.64-3.23,5.28c-0.87,2.1-1.69,3.69-2.46,4.78c-0.77,1.08-1.49,1.82-2.16,2.2L996.45,246.46z"/>
			<path class="st76" d="M1045.95,221.53c0,8.07-2.16,14.41-6.47,19.04c-4.31,4.62-10.22,6.94-17.73,6.94
				c-7.53,0-13.44-2.34-17.73-7.02s-6.43-11-6.43-18.95c0-8.02,2.14-14.36,6.43-19.02c4.29-4.66,10.2-6.99,17.73-6.99
				c7.51,0,13.42,2.32,17.73,6.95C1043.79,207.11,1045.95,213.46,1045.95,221.53z M1033.01,221.49c0-2.97-0.31-5.5-0.92-7.59
				c-0.61-2.09-1.44-3.8-2.46-5.14c-1.07-1.36-2.28-2.34-3.64-2.93s-2.75-0.89-4.21-0.89c-1.54,0-2.94,0.27-4.19,0.82
				c-1.25,0.55-2.46,1.53-3.62,2.93c-1.03,1.3-1.86,3.02-2.5,5.16c-0.64,2.14-0.95,4.7-0.95,7.67c0,3.06,0.3,5.6,0.9,7.62
				c0.6,2.02,1.43,3.71,2.48,5.08c1.07,1.39,2.29,2.37,3.65,2.97c1.36,0.59,2.77,0.89,4.22,0.89c1.47,0,2.9-0.32,4.29-0.95
				c1.39-0.64,2.58-1.63,3.59-2.97c1.07-1.45,1.9-3.14,2.48-5.08C1032.72,227.15,1033.01,224.62,1033.01,221.49z"/>
			<path class="st76" d="M1104.33,246.46h-12.47v-33.08l-9.08,21.35h-8.55l-9.08-21.35v33.08h-11.8v-49.9h14.44l11.06,24.63
				l11.03-24.63h14.44V246.46z"/>
			<path class="st76" d="M1156.77,246.46h-12.53v-40.38h-17.06v40.38h-12.53v-49.9h42.13V246.46z"/>
			<path class="st76" d="M1161.73,246.46l16.86-49.9h13.67l16.86,49.9h-12.9l-3.12-10.19h-15.68l-3.12,10.19H1161.73z
				 M1190.35,227.22l-5.09-16.45l-5.09,16.45H1190.35z"/>
			<path class="st76" d="M1256.2,246.46h-12.53v-22.12h-17.06v22.12h-12.53v-49.9h12.53v18.26h17.06v-18.26h12.53V246.46z"/>
			<path class="st76" d="M1309.62,246.46h-12.33v-32.88l-19.17,32.88h-11.6v-49.9h12.33v29.72l17.73-29.72h13.04V246.46z"/>
			<path class="st76" d="M1358.58,246.46h-12.47v-18.3h-4.72l-12.57,18.3h-14.88l14.88-20.68c-3.06-1.32-5.42-3.17-7.09-5.56
				c-1.66-2.39-2.5-5.47-2.5-9.25c0-2.55,0.56-4.77,1.69-6.67c1.13-1.9,2.56-3.45,4.31-4.66c1.52-1.05,3.37-1.83,5.55-2.33
				c2.18-0.5,4.68-0.75,7.49-0.75h20.31V246.46z M1346.12,219.18v-13.44h-4.02c-1.94,0-3.44,0.06-4.49,0.18
				c-1.05,0.12-2.07,0.55-3.05,1.29c-0.76,0.56-1.34,1.29-1.74,2.2c-0.4,0.91-0.6,1.9-0.6,3c0,1.14,0.21,2.16,0.64,3.07
				c0.42,0.9,1.02,1.65,1.78,2.23c0.85,0.67,1.85,1.08,3,1.24c1.15,0.16,2.66,0.23,4.54,0.23H1346.12z"/>
		</g>
	</g>
	<rect x="887.88" y="12.5" class="st76" width="11.07" height="235"/>
</g>
</svg>
