<svg width="10" height="15" viewBox="0 0 10 15" fill="none" xmlns="http://www.w3.org/2000/svg">
<path fill-rule="evenodd" clip-rule="evenodd" d="M0.277983 6.77372C-0.0665589 6.44585 -0.094675 5.88755 0.215184 5.52672L3.6072 1.57676C4.20295 0.883019 5.2065 0.806808 5.89542 1.38451C5.92622 1.40998 5.95641 1.43675 5.98591 1.4648L9.72086 5.01624C10.0673 5.34564 10.0955 5.90658 9.78396 6.26912C9.47238 6.63167 8.93897 6.65853 8.59254 6.32913L5.99995 3.86392L5.99995 13.5012C5.99995 14.0535 5.55223 14.5012 4.99995 14.5012C4.44766 14.5012 3.99995 14.0535 3.99995 13.5012V3.75967L1.46288 6.71404C1.15302 7.07487 0.622526 7.10159 0.277983 6.77372Z" fill="white"/>
</svg>
