<svg width="12" height="18" viewBox="0 0 12 18" fill="none" xmlns="http://www.w3.org/2000/svg">
<path fill-rule="evenodd" clip-rule="evenodd" d="M10.8197 13.1002C11.1322 12.7393 11.1041 12.181 10.7569 11.8532C10.4096 11.5255 9.87481 11.5524 9.56229 11.9134L6.14976 15.8549L2.38039 12.2971C2.03166 11.968 1.4945 11.995 1.18061 12.3576C0.866724 12.7201 0.894975 13.2809 1.24371 13.61L5.00773 17.1628C5.01078 17.1657 5.01383 17.1685 5.01689 17.1714C5.70246 17.8147 6.75084 17.7694 7.37786 17.075C7.38777 17.0642 7.39759 17.0531 7.40729 17.0419L7.40716 17.0418L10.8197 13.1002Z" fill="#838383"/>
<rect x="7.00684" y="8.37402" width="9" height="2.01481" rx="1" transform="rotate(90 7.00684 8.37402)" fill="#838383"/>
<rect x="7.00684" y="4.37402" width="2" height="2.01481" rx="1" transform="rotate(90 7.00684 4.37402)" fill="#838383"/>
<rect x="7.00684" y="0.374023" width="2" height="2.01481" rx="1" transform="rotate(90 7.00684 0.374023)" fill="#838383"/>
</svg>
