<svg width="30" height="10" viewBox="0 0 30 10" fill="none" xmlns="http://www.w3.org/2000/svg">
<path fill-rule="evenodd" clip-rule="evenodd" d="M24.7256 0.215294C24.3649 -0.0947051 23.8068 -0.0665984 23.4791 0.278072C23.1514 0.622743 23.1781 1.15346 23.5388 1.46346L27.4809 4.85137L23.9234 8.59261C23.594 8.93904 23.6209 9.47246 23.9834 9.78404C24.346 10.0956 24.9069 10.0674 25.2363 9.72094L28.7878 5.98599C28.7943 5.97913 28.8007 5.97223 28.8071 5.9653C29.4456 5.27867 29.3912 4.23376 28.6836 3.61696C28.6784 3.61233 28.6731 3.60772 28.6678 3.60314L28.6677 3.6032L24.7256 0.215294Z" fill="#838383"/>
<rect x="20" y="4.00049" width="9" height="2" rx="1" fill="#838383"/>
<rect x="16" y="4.00049" width="2" height="2" rx="1" fill="#838383"/>
<rect x="12" y="4.00049" width="2" height="2" rx="1" fill="#838383"/>
<rect x="4" y="4.00049" width="2" height="2" rx="1" fill="#838383"/>
<rect y="4.00049" width="2" height="2" rx="1" fill="#838383"/>
<rect x="8" y="4.00049" width="2" height="2" rx="1" fill="#838383"/>
</svg>
