<svg width="15" height="12" viewBox="0 0 15 12" fill="none" xmlns="http://www.w3.org/2000/svg">
<path d="M14.4896 1.59102L13.0177 0.119086C12.8589 -0.0396955 12.6015 -0.0396955 12.4427 0.119086L4.86816 7.69324L2.16602 4.99131C2.00724 4.83253 1.74985 4.83253 1.59107 4.99131L0.119137 6.46324C0.0428976 6.53948 0 6.64296 0 6.75072C0 6.85847 0.0428976 6.96195 0.119137 7.03819L4.58068 11.4993C4.66017 11.5788 4.76406 11.6185 4.86816 11.6185C4.97245 11.6185 5.07593 11.5788 5.15563 11.4993L14.4894 2.16597C14.5656 2.08973 14.6085 1.98625 14.6085 1.87849C14.6085 1.77074 14.5658 1.66726 14.4896 1.59102Z" fill="black"/>
</svg>
