<svg width="16" height="16" viewBox="0 0 16 16" fill="none" xmlns="http://www.w3.org/2000/svg">
<path d="M13.25 2H10.5V1.5C10.5 0.671562 9.82844 0 9 0H7C6.17156 0 5.5 0.671562 5.5 1.5V2H2.75C2.05966 2 1.5 2.55966 1.5 3.25V4.25C1.5 4.52616 1.72384 4.75 2 4.75H14C14.2762 4.75 14.5 4.52616 14.5 4.25V3.25C14.5 2.55966 13.9403 2 13.25 2ZM6.5 1.5C6.5 1.22438 6.72438 1 7 1H9C9.27563 1 9.5 1.22438 9.5 1.5V2H6.5V1.5Z" fill="white" fill-opacity="0.5"/>
<path d="M2.44824 5.75C2.35902 5.75 2.28792 5.82456 2.29217 5.91369L2.70467 14.5712C2.7428 15.3725 3.40092 16 4.2028 16H11.7959C12.5978 16 13.2559 15.3725 13.2941 14.5712L13.7066 5.91369C13.7108 5.82456 13.6397 5.75 13.5505 5.75H2.44824ZM9.99936 7C9.99936 6.72375 10.2231 6.5 10.4994 6.5C10.7756 6.5 10.9994 6.72375 10.9994 7V13.5C10.9994 13.7762 10.7756 14 10.4994 14C10.2231 14 9.99936 13.7762 9.99936 13.5V7ZM7.49936 7C7.49936 6.72375 7.72311 6.5 7.99936 6.5C8.27561 6.5 8.49936 6.72375 8.49936 7V13.5C8.49936 13.7762 8.27561 14 7.99936 14C7.72311 14 7.49936 13.7762 7.49936 13.5V7ZM4.99936 7C4.99936 6.72375 5.22311 6.5 5.49936 6.5C5.77561 6.5 5.99936 6.72375 5.99936 7V13.5C5.99936 13.7762 5.77561 14 5.49936 14C5.22311 14 4.99936 13.7762 4.99936 13.5V7Z" fill="white" fill-opacity="0.5"/>
</svg>
