<svg width="20" height="20" viewBox="0 0 20 20" fill="none" xmlns="http://www.w3.org/2000/svg">
<path d="M15.7753 12.3821L12.3468 11.0107C13.4048 10.2682 14.1016 9.04391 14.1016 7.65625C14.1016 7.45855 14.0798 7.26379 14.052 7.07031H14.6875C15.0114 7.07031 15.2734 6.80824 15.2734 6.48438C15.2734 5.52988 14.8077 4.68867 14.099 4.15344C14.0991 4.14895 14.1016 4.1452 14.1016 4.14062V2.92969C14.1016 1.31434 12.7872 0 11.1719 0H8.82812C7.21277 0 5.89844 1.31434 5.89844 2.92969V4.14062C5.89844 4.1452 5.90094 4.14891 5.90102 4.15344C5.19227 4.68867 4.72656 5.52988 4.72656 6.48438C4.72656 6.80824 4.98863 7.07031 5.3125 7.07031H5.94801C5.9202 7.26379 5.89844 7.45855 5.89844 7.65625C5.89844 9.04391 6.59523 10.2682 7.65324 11.0107L4.22473 12.3821C3.10551 12.8296 2.38281 13.8973 2.38281 15.1023V19.4141C2.38281 19.7379 2.64488 20 2.96875 20H4.72656V17.0312C4.72656 16.944 4.75578 16.8334 4.78836 16.7692L5.96023 14.4254C6.0598 14.2269 6.26234 14.1016 6.48438 14.1016H13.5156C13.7377 14.1016 13.9402 14.2269 14.0398 14.4254L15.2116 16.7692C15.2442 16.8334 15.2734 16.944 15.2734 17.0312V20H17.0312C17.3551 20 17.6172 19.7379 17.6172 19.4141V15.1023C17.6172 13.8973 16.8945 12.8295 15.7753 12.3821ZM10 12.6871L9.07074 11.7578H10.9293L10 12.6871ZM9.99996 10.5859C8.38461 10.5859 7.07031 9.2716 7.07031 7.65625C7.07031 7.45742 7.09629 7.26242 7.13531 7.07031H12.8646C12.9037 7.26242 12.9296 7.45742 12.9296 7.65625C12.9296 9.2716 11.6153 10.5859 9.99996 10.5859Z" fill="#016B45"/>
<path d="M14.1016 17.6172H5.89844V20H14.1016V17.6172Z" fill="#016B45"/>
<path d="M13.1534 15.2734H6.84656L6.26062 16.4453H13.7394L13.1534 15.2734Z" fill="#016B45"/>
</svg>
