<svg width="16" height="20" viewBox="0 0 16 20" fill="none" xmlns="http://www.w3.org/2000/svg">
<path d="M5.8533 9.8718C6.1047 10.3266 6.02955 9.94762 6.02955 19.0123C6.02955 19.8235 6.76992 20.2877 7.29174 19.8025C9.52152 17.7011 9.96702 17.5191 9.96702 16.5362C9.96702 9.93055 9.90542 10.302 10.1433 9.8718L13.7642 3.71094H2.23242L5.8533 9.8718Z" fill="white"/>
<path d="M15.1314 0.502344C15.002 0.192578 14.7483 0 14.4689 0H1.52654C0.923255 0 0.568286 0.850664 0.914349 1.46875C0.917192 1.47469 0.875067 1.40262 1.5431 2.53906H14.4523C15.0216 1.57059 15.4021 1.15215 15.1314 0.502344Z" fill="white"/>
</svg>
