<svg width="24" height="24" viewBox="0 0 24 24" fill="none" xmlns="http://www.w3.org/2000/svg">
<g clip-path="url(#clip0)">
<path d="M11.8174 8.56031L15.253 11.9959L15.2693 11.8159C15.2693 10.0109 13.8024 8.54395 11.9973 8.54395L11.8174 8.56031Z" fill="black"/>
<path d="M11.9973 6.36262C15.0076 6.36262 17.4507 8.80572 17.4507 11.8159C17.4507 12.5194 17.3089 13.1902 17.0635 13.8064L20.2537 16.9966C21.9006 15.6223 23.1985 13.8446 24.0001 11.8159C22.1078 7.02796 17.4561 3.63599 11.9974 3.63599C10.4704 3.63599 9.009 3.90863 7.65112 4.39943L10.007 6.74979C10.6231 6.50986 11.2939 6.36262 11.9973 6.36262Z" fill="black"/>
<path d="M1.09064 3.39059L3.57735 5.8773L4.07362 6.37357C2.27403 7.78052 0.850716 9.65102 0 11.816C1.88686 16.6039 6.54397 19.9959 11.9973 19.9959C13.6878 19.9959 15.302 19.6687 16.7799 19.0743L17.2434 19.5378L20.4227 22.7225L21.8133 21.3374L2.48124 2L1.09064 3.39059ZM7.12204 9.41651L8.80711 11.1016C8.75803 11.3361 8.72531 11.5706 8.72531 11.816C8.72531 13.621 10.1922 15.0879 11.9973 15.0879C12.2427 15.0879 12.4772 15.0552 12.7062 15.0061L14.3913 16.6912C13.666 17.0511 12.8589 17.2693 11.9973 17.2693C8.98707 17.2693 6.54397 14.8262 6.54397 11.816C6.54397 10.9543 6.76212 10.1472 7.12204 9.41651Z" fill="black"/>
</g>
<defs>
<clipPath id="clip0">
<rect width="24" height="24" fill="white"/>
</clipPath>
</defs>
</svg>
