<svg width="18" height="18" viewBox="0 0 18 18" fill="none" xmlns="http://www.w3.org/2000/svg">
<path d="M15.253 4.79979H11.2306C11.6544 4.29195 11.91 3.63895 11.91 2.92731C11.91 1.31314 10.5969 0 8.98283 0C7.36867 0 6.05553 1.31314 6.05553 2.92731C6.05553 3.63895 6.3111 4.29195 6.73489 4.79979H2.71252L0.210938 18H17.7546L15.253 4.79979ZM8.98283 1.05469C10.0153 1.05469 10.8553 1.89473 10.8553 2.92731C10.8553 3.95975 10.0153 4.79979 8.98283 4.79979C7.95026 4.79979 7.11021 3.95975 7.11021 2.92731C7.11021 1.89473 7.95026 1.05469 8.98283 1.05469ZM3.58607 5.85448H14.3795L16.4813 16.9453H1.48425L3.58607 5.85448Z" fill="#838383"/>
<path d="M9.00415 9.302H7.80705L6.13342 10.9733V9.302H5.27319V13.5169H6.13342V12.0763L6.56725 11.6534L7.87833 13.5169H8.98877L7.18152 11.0623L9.00415 9.302Z" fill="#838383"/>
<path d="M10.706 12.0006H11.8427V12.4629C11.7513 12.5295 11.6269 12.5948 11.4716 12.6576C11.2826 12.7341 11.0862 12.7728 10.8882 12.7728C10.6615 12.7728 10.4445 12.7222 10.243 12.6222C10.0489 12.5259 9.90466 12.382 9.80249 12.182C9.69702 11.9759 9.6436 11.7115 9.6436 11.3964C9.6436 11.1411 9.68892 10.9017 9.77777 10.6857C9.82803 10.5655 9.89958 10.4536 9.99049 10.3527C10.0771 10.2565 10.1951 10.1769 10.3408 10.1161C10.4893 10.0541 10.6707 10.0227 10.8802 10.0227C11.0509 10.0227 11.2074 10.0522 11.3451 10.1104C11.4761 10.1658 11.5766 10.2384 11.6438 10.3262C11.7166 10.4212 11.7796 10.5583 11.8313 10.7336L11.8796 10.8977L12.6716 10.6805L12.6289 10.5145C12.5562 10.2316 12.4469 9.99686 12.3038 9.81654C12.157 9.63156 11.9542 9.48627 11.7007 9.38464C11.4551 9.28618 11.1783 9.23633 10.8776 9.23633C10.4654 9.23633 10.0943 9.32312 9.77475 9.49423C9.44763 9.66946 9.19385 9.94014 9.02095 10.2987C8.85272 10.6472 8.76758 11.0271 8.76758 11.4281C8.76758 11.834 8.85382 12.2079 9.02425 12.539C9.19852 12.8779 9.45985 13.1403 9.80125 13.3191C10.1354 13.4942 10.5108 13.5831 10.9172 13.5831C11.2184 13.5831 11.5159 13.5283 11.8017 13.4201C12.0848 13.3131 12.3623 13.1519 12.6267 12.9411L12.6924 12.8887V11.1955L10.706 11.1986V12.0006Z" fill="#838383"/>
</svg>
