<svg width="20" height="20" viewBox="0 0 20 20" fill="none" xmlns="http://www.w3.org/2000/svg">
<path d="M19.881 4.69991L18.409 3.22797C18.2502 3.06919 17.9929 3.06919 17.8341 3.22797L10.2595 10.8021L7.55738 8.10019C7.3986 7.94141 7.14121 7.94141 6.98243 8.10019L5.51049 9.57213C5.43426 9.64837 5.39136 9.75185 5.39136 9.8596C5.39136 9.96736 5.43426 10.0708 5.51049 10.1471L9.97204 14.6082C10.0515 14.6877 10.1554 14.7274 10.2595 14.7274C10.3638 14.7274 10.4673 14.6877 10.547 14.6082L19.8808 5.27486C19.957 5.19862 19.9999 5.09513 19.9999 4.98738C19.9999 4.87963 19.9572 4.77615 19.881 4.69991Z" fill="#016B45"/>
<path d="M14.9598 16.4635H2.03306V3.53648H15.2679L16.9929 1.91003C16.9929 1.68558 16.8107 1.50342 16.5863 1.50342H0.406611C0.182162 1.50342 0 1.68558 0 1.91003V18.0899C0 18.3144 0.182162 18.4965 0.406611 18.4965H16.5865C16.8111 18.4965 16.9931 18.3144 16.9931 18.0899V10.3887L14.96 12.5234L14.9598 16.4635Z" fill="#838383"/>
</svg>
