<svg width="20" height="20" viewBox="0 0 20 20" fill="none" xmlns="http://www.w3.org/2000/svg">
<rect x="5" y="8" width="11" height="3" rx="0.3" fill="#C70000"/>
<path fill-rule="evenodd" clip-rule="evenodd" d="M14.9598 16.4635H2.03306V3.53648H11.0199L11.02 3.53653L14.96 3.53674V12.5234L14.9598 16.4635ZM0 1.91003V1.91029V18.0899V18.09C0 18.3144 0.182162 18.4966 0.406612 18.4966H16.5865C16.6488 18.4966 16.7078 18.4825 16.7606 18.4575C16.8743 18.4035 16.959 18.2983 16.9848 18.1718C16.9903 18.1454 16.9931 18.118 16.9931 18.09V18.0899V12H15V7H16.9931V1.91009C16.9931 1.71713 16.8587 1.55567 16.6786 1.51395C16.6489 1.50706 16.618 1.50342 16.5863 1.50342H0.406611C0.182162 1.50342 0 1.68558 0 1.91003Z" fill="#838383"/>
</svg>
