<svg width="20" height="20" viewBox="0 0 20 20" fill="none" xmlns="http://www.w3.org/2000/svg">
<path fill-rule="evenodd" clip-rule="evenodd" d="M8.22962 3.18026C8.59764 3.77186 9.25376 4.16667 9.99995 4.16667C10.7462 4.16667 11.4023 3.77185 11.7703 3.18024L15.8572 4.68444C15.8415 4.78738 15.8333 4.89277 15.8333 5.00002C15.8333 5.10725 15.8415 5.21261 15.8572 5.31553L11.7703 6.81974C11.4023 6.22815 10.7461 5.83334 9.99995 5.83334C9.25376 5.83334 8.59765 6.22815 8.22962 6.81974L4.14279 5.31556C4.15851 5.21263 4.16667 5.10726 4.16667 5.00002C4.16667 4.89277 4.15851 4.78738 4.14279 4.68444L8.22962 3.18026ZM3.23455 4.51305C3.23861 4.53186 3.24402 4.5506 3.25083 4.56916C3.25786 4.58835 3.26616 4.60671 3.2756 4.62418C3.3131 4.74286 3.33333 4.86912 3.33333 5.00002C3.33333 5.13128 3.31299 5.25789 3.27529 5.37685C3.266 5.394 3.25781 5.41202 3.25083 5.43085C3.24401 5.44943 3.2386 5.4682 3.23453 5.48703C3.04471 5.93395 2.60192 6.24854 2.08696 6.25002C2.08576 6.25001 2.08456 6.25 2.08335 6.25C2.08215 6.25 2.08094 6.25 2.07973 6.25002C1.39222 6.24807 0.833333 5.68799 0.833333 5.00002C0.833333 4.31085 1.39417 3.75002 2.08333 3.75002C2.59986 3.75002 3.04429 4.06506 3.23455 4.51305ZM3.85366 3.90307L7.9405 2.39888C7.92478 2.29595 7.91663 2.19057 7.91663 2.08333C7.91663 0.935 8.85162 0 9.99995 0C11.1483 0 12.0833 0.935 12.0833 2.08333C12.0833 2.19056 12.0751 2.29594 12.0594 2.39886L16.1463 3.90307C16.5143 3.31148 17.1705 2.91669 17.9166 2.91669C19.065 2.91669 20 3.85169 20 5.00002C20 6.00571 19.2828 6.84777 18.3333 7.04145V12.9586C19.2828 13.1522 20 13.9943 20 15C20 16.1483 19.065 17.0833 17.9166 17.0833C17.1705 17.0833 16.5144 16.6885 16.1463 16.097L12.0594 17.6012C12.0751 17.7041 12.0833 17.8094 12.0833 17.9166C12.0833 19.065 11.1483 20 9.99995 20C8.85162 20 7.91663 19.065 7.91663 17.9166C7.91663 17.8094 7.92478 17.7041 7.94049 17.6012L3.85365 16.097C3.48562 16.6885 2.82951 17.0833 2.08333 17.0833C0.935 17.0833 0 16.1483 0 15C0 13.9943 0.717153 13.1522 1.66669 12.9585V7.04146C0.717153 6.84779 0 6.00572 0 5.00002C0 3.85169 0.935 2.91669 2.08333 2.91669C2.82952 2.91669 3.48563 3.31148 3.85366 3.90307ZM2.50002 7.04145V12.9586C3.44953 13.1522 4.16667 13.9943 4.16667 15C4.16667 15.1073 4.15851 15.2127 4.14278 15.3156L8.22958 16.8198C8.52727 16.3412 9.01347 15.9914 9.58337 15.8752V9.95813C8.63381 9.76449 7.91663 8.9224 7.91663 7.91668C7.91663 7.80943 7.92478 7.70405 7.9405 7.60112L3.85368 6.09694C3.55601 6.57545 3.06986 6.92521 2.50002 7.04145ZM16.6666 5.00002C16.6666 4.86911 16.6869 4.74283 16.7244 4.62414C16.7338 4.60668 16.7421 4.58834 16.7492 4.56916C16.7562 4.55029 16.7617 4.53123 16.7658 4.51212C16.9563 4.06462 17.4005 3.75002 17.9166 3.75002C18.6058 3.75002 19.1666 4.31085 19.1666 5.00002C19.1666 5.68798 18.6078 6.24805 17.9203 6.25002L17.9167 6.25L17.913 6.25002C17.3981 6.24856 16.9552 5.93393 16.7654 5.48698C16.7614 5.46816 16.756 5.4494 16.7492 5.43081C16.7421 5.41164 16.7338 5.3933 16.7244 5.37584C16.6869 5.25717 16.6666 5.13092 16.6666 5.00002ZM16.1463 6.09691C16.444 6.57545 16.9301 6.92523 17.5 7.04146V12.9585C16.5505 13.1522 15.8333 13.9943 15.8333 15C15.8333 15.1073 15.8415 15.2126 15.8572 15.3156L11.7703 16.8198C11.4727 16.3413 10.9865 15.9915 10.4167 15.8752V9.9581C11.3662 9.76439 12.0833 8.92234 12.0833 7.91668C12.0833 7.80943 12.0751 7.70405 12.0594 7.60111L16.1463 6.09691ZM8.8488 2.57043C9.03908 3.01835 9.48348 3.33333 9.99995 3.33333C10.5162 3.33333 10.9605 3.01862 11.1509 2.57099C11.155 2.55194 11.1605 2.53296 11.1675 2.51416C11.1745 2.4951 11.1827 2.47688 11.1921 2.45953C11.2297 2.34075 11.2499 2.21436 11.2499 2.08333C11.2499 1.39417 10.6891 0.833333 9.99995 0.833333C9.31079 0.833333 8.74996 1.39417 8.74996 2.08333C8.74996 2.2145 8.77027 2.34102 8.80792 2.45991C8.81725 2.47715 8.82549 2.49525 8.8325 2.51416C8.83932 2.53277 8.84474 2.55157 8.8488 2.57043ZM11.1675 7.48581C11.1745 7.50494 11.1828 7.52324 11.1922 7.54066C11.2297 7.65939 11.2499 7.78571 11.2499 7.91668C11.2499 8.60463 10.6911 9.1647 10.0036 9.16667L10 9.16666L9.99644 9.16667C9.30889 9.16477 8.74996 8.60467 8.74996 7.91668C8.74996 7.78582 8.77018 7.65958 8.80766 7.54094C8.81713 7.52345 8.82545 7.50507 8.8325 7.48585C8.83951 7.46692 8.84506 7.44781 8.84919 7.42864C9.0397 6.98122 9.48384 6.66668 9.99995 6.66668C10.5166 6.66668 10.9611 6.98185 11.1513 7.42999C11.1553 7.4487 11.1607 7.46734 11.1675 7.48581ZM16.7654 15.4869C16.7613 15.4681 16.7559 15.4494 16.7492 15.4309C16.7421 15.4118 16.7339 15.3935 16.7245 15.3761C16.6869 15.2573 16.6666 15.131 16.6666 15C16.6666 14.3116 17.2263 13.7512 17.9145 13.75L16.7654 15.4869ZM3.33333 15C3.33333 15.1313 3.31298 15.2579 3.27527 15.3769L2.08114 13.75L2.08333 13.75C2.7725 13.75 3.33333 14.3108 3.33333 15ZM3.27527 15.3769L3.23413 15.4879C3.23826 15.4688 3.2438 15.4498 3.2508 15.4309C3.25778 15.412 3.26597 15.394 3.27527 15.3769ZM11.1512 17.4298C10.961 16.9818 10.5165 16.6666 9.99995 16.6666L9.9971 16.6666C9.48216 16.6678 9.03929 16.9821 8.84916 17.4287C8.84502 17.4479 8.83947 17.467 8.83246 17.4859C8.82543 17.5051 8.81711 17.5235 8.80765 17.5409C8.77017 17.6596 8.74996 17.7858 8.74996 17.9166C8.74996 18.6058 9.31079 19.1666 9.99995 19.1666C10.6891 19.1666 11.2499 18.6058 11.2499 17.9166C11.2499 17.7858 11.2297 17.6595 11.1922 17.5409C11.1828 17.5234 11.1745 17.5051 11.1675 17.4859C11.1607 17.4673 11.1553 17.4486 11.1512 17.4298ZM11.1512 17.4298L8.80765 17.5409L9.9971 16.6666L11.1512 17.4298Z" fill="#838383"/>
</svg>
