<svg width="18" height="18" viewBox="0 0 18 18" fill="none" xmlns="http://www.w3.org/2000/svg">
<path d="M9 0C4.03732 0 0 4.03732 0 9C0 13.9627 4.03732 18 9 18C13.9627 18 18 13.9627 18 9C18 4.03732 13.9627 0 9 0ZM9 16.0328C5.12202 16.0328 1.96721 12.878 1.96721 9C1.96721 5.12221 5.12202 1.96721 9 1.96721C12.878 1.96721 16.0328 5.12221 16.0328 9C16.0328 12.878 12.878 16.0328 9 16.0328Z" fill="#838383"/>
<path d="M9.77909 9.0109V5.23881C9.77909 4.81762 9.43779 4.47632 9.01676 4.47632C8.59561 4.47632 8.25427 4.81762 8.25427 5.23881V9.25449C8.25427 9.26648 8.25723 9.27773 8.25781 9.28972C8.24778 9.49705 8.3192 9.70756 8.47755 9.86594L11.3173 12.7054C11.6151 13.0033 12.0978 13.0033 12.3955 12.7054C12.6931 12.4076 12.6933 11.9248 12.3955 11.6272L9.77909 9.0109Z" fill="#838383"/>
</svg>
