<svg width="10" height="10" viewBox="0 0 10 10" fill="none" xmlns="http://www.w3.org/2000/svg">
<g clip-path="url(#clip0)">
<path d="M0.246058 5.59379L4.40571 9.75345C4.73379 10.0815 5.26588 10.0815 5.59396 9.75345C5.92203 9.42538 5.92203 8.89329 5.59396 8.56521L2.02881 5.00008L5.59396 1.43497C5.92203 1.10689 5.92203 0.5748 5.59396 0.246722C5.26588 -0.0813551 4.73379 -0.0813551 4.40571 0.246722L0.246058 4.40637C-0.0820198 4.73363 -0.0820198 5.26571 0.246058 5.59379ZM5.24756 5.84567L8.54997 9.32628C8.88181 9.67558 9.41929 9.67558 9.75112 9.32628C10.083 8.97698 10.083 8.41033 9.75112 8.0606L7.04907 5.21283L9.75112 2.36507C10.083 2.01575 10.083 1.44871 9.75112 1.09939C9.41929 0.750072 8.88181 0.750072 8.54997 1.09939L5.24756 4.58C4.91573 4.9293 4.91573 5.49595 5.24756 5.84567Z" fill="black" fill-opacity="0.2"/>
</g>
<defs>
<clipPath id="clip0">
<rect width="10" height="10" fill="white" transform="translate(10 10) rotate(-180)"/>
</clipPath>
</defs>
</svg>
