<svg width="48" height="48" viewBox="0 0 48 48" fill="none" xmlns="http://www.w3.org/2000/svg">
<g clip-path="url(#clip0)">
<path d="M14.2783 20.8599C14.6732 22.2186 15.4025 23.4643 16.4306 24.4924L19.4499 27.511C20.1808 28.2418 21.1532 28.6452 22.1867 28.6452H25.8154C26.8489 28.6452 27.8213 28.2418 28.5521 27.511L31.5715 24.4924C32.5996 23.4643 33.3289 22.2186 33.7237 20.8599C35.6523 20.6416 37.1619 19.0188 37.1619 17.0323C37.1619 15.8114 36.5774 14.6648 35.6135 13.9394V7.21006C35.6135 3.23458 32.379 0 28.4043 0H19.597C15.6223 0 12.3877 3.23458 12.3877 7.20929V13.9386C11.4239 14.664 10.8394 15.8106 10.8394 17.0315C10.8394 19.0188 12.349 20.6416 14.2783 20.8599ZM32.5168 18.4699C32.5168 20.3319 31.7921 22.0808 30.476 23.3977L27.4566 26.4163C27.0246 26.849 26.4262 27.0968 25.8146 27.0968H22.1859C21.5743 27.0968 20.9766 26.849 20.5439 26.4163L17.5245 23.3977C16.2084 22.0815 15.4837 20.3319 15.4837 18.4707V16.0452C15.9575 16.169 16.4701 16.2581 17.0329 16.2581C18.1996 16.2581 19.011 15.9252 19.8695 15.5721C20.9031 15.1479 21.9723 14.7097 24.0006 14.7097C26.029 14.7097 27.0982 15.1479 28.1317 15.5721C28.9903 15.9252 29.8017 16.2581 30.9684 16.2581C31.5312 16.2581 32.0437 16.169 32.5168 16.0444V18.4699ZM30.9684 14.7097C30.1075 14.7097 29.4951 14.4588 28.7194 14.1406C27.6572 13.704 26.3348 13.1613 24.0006 13.1613C21.6665 13.1613 20.3441 13.704 19.2819 14.1406C18.5062 14.4588 17.8938 14.7097 17.0329 14.7097C15.7671 14.7097 14.7568 14.1623 14.1955 13.7714C15.0572 12.6441 17.7119 10.0645 24.0006 10.0645C30.2987 10.0645 32.9526 12.6519 33.8089 13.7745C33.2515 14.1646 32.2474 14.7097 30.9684 14.7097ZM35.6135 17.0323C35.6135 18.0534 34.9462 18.9135 34.0288 19.2232C34.0504 18.9739 34.0652 18.7239 34.0652 18.4699V15.4297C34.2564 15.3244 34.4267 15.2191 34.5792 15.1169C35.2141 15.5474 35.6135 16.2596 35.6135 17.0323ZM13.9361 7.21006C13.9361 4.08774 16.4755 1.54839 19.597 1.54839H28.4035C31.5258 1.54839 34.0652 4.08774 34.0652 7.20929V11.7886C32.4819 10.3293 29.4308 8.51613 24.0006 8.51613C18.5705 8.51613 15.5194 10.3293 13.9361 11.7894V7.21006ZM13.4221 15.1177C13.5746 15.2199 13.7449 15.3244 13.9361 15.4305V18.4707C13.9361 18.7239 13.9508 18.9747 13.9725 19.224C13.0551 18.9135 12.3877 18.0534 12.3877 17.0323C12.3877 16.2596 12.7872 15.5474 13.4221 15.1177Z" fill="#1E4A3B"/>
<path fill-rule="evenodd" clip-rule="evenodd" d="M37.3817 31.0816C40.3825 32.0818 42.5696 34.6413 43.0891 37.7605L44.7954 48H38.3183C38.699 49.3213 38.903 50.7175 38.903 52.1613C38.903 60.4456 32.1873 67.1613 23.903 67.1613C15.6187 67.1613 8.90302 60.4456 8.90302 52.1613C8.90302 50.7175 9.10701 49.3213 9.48775 48H2.70947L4.41657 37.7605C4.93683 34.6413 7.12392 32.0818 10.1239 31.0816L16.7851 28.8612V27.871H18.3335V29.1445C18.7616 29.6183 20.2852 30.9677 23.7528 30.9677C27.2204 30.9677 28.7441 29.6183 29.1722 29.1445V27.871H30.7206V28.8612L37.3817 31.0816ZM11.7543 43.3612L12.1399 39.4839V32.0416L17.3162 30.3166C18.0803 31.0831 20.0088 32.5161 23.7528 32.5161C27.4968 32.5161 29.4253 31.0831 30.1895 30.3166L35.3657 32.0416L35.3696 39.5613L35.7035 42.9002C32.9572 39.4058 28.6922 37.1613 23.903 37.1613C18.9064 37.1613 14.4804 39.6044 11.7543 43.3612ZM11.1074 48C10.6816 49.3103 10.4514 50.7089 10.4514 52.1613C10.4514 59.5904 16.4739 65.6129 23.903 65.6129C31.3321 65.6129 37.3546 59.5904 37.3546 52.1613C37.3546 50.7089 37.1245 49.3103 36.6986 48H35.306C35.7553 49.2713 35.9998 50.6394 35.9998 52.0645C35.9998 58.7988 30.5406 64.2581 23.8062 64.2581C17.0719 64.2581 11.6127 58.7988 11.6127 52.0645C11.6127 50.6394 11.8572 49.2713 12.3065 48H11.1074ZM12.9785 46.4516H11.7198C13.8673 41.8772 18.5153 38.7097 23.903 38.7097C29.2617 38.7097 33.8885 41.8431 36.0512 46.3776L36.0586 46.4516H34.634C32.603 42.5418 28.5165 39.871 23.8062 39.871C19.096 39.871 15.0095 42.5418 12.9785 46.4516ZM13.9646 48C13.4468 49.2524 13.1611 50.6251 13.1611 52.0645C13.1611 57.6725 17.4976 62.2677 23.0002 62.6796V48H13.9646ZM20.2576 46.4516H14.7594C15.233 45.6898 15.8002 44.9922 16.4449 44.3749L20.2576 46.4516ZM25.1565 46.4516H23.2368L17.6265 43.3958C19.3688 42.1515 21.502 41.4194 23.8062 41.4194C26.0202 41.4194 28.0764 42.0953 29.7796 43.252L25.1565 46.4516ZM25.1122 48L24.2117 48.5948V62.7021C29.903 62.489 34.4514 57.8079 34.4514 52.0645C34.4514 50.6251 34.1657 49.2524 33.6479 48H25.1122ZM32.8531 46.4516H27.4565L30.9321 44.1561C31.6747 44.8257 32.3226 45.5984 32.8531 46.4516ZM37.7781 46.4516C37.71 46.2863 37.639 46.1225 37.5653 45.9602L37.5296 45.6062L42.719 44.9574L42.9675 46.4516H37.7781ZM4.53812 46.4516H9.89089L9.97528 45.6062L4.78663 44.9574L4.53812 46.4516ZM5.04134 43.4284L10.1293 44.0648L10.5954 39.4065L10.5923 32.5587C8.14818 33.3832 6.36754 35.4712 5.94328 38.0137L5.04134 43.4284ZM36.9141 32.5595V39.4839L37.374 44.0663L42.4635 43.4299L41.5616 38.0152C41.1381 35.4712 39.3575 33.3832 36.9141 32.5595Z" fill="#1E4A3B"/>
</g>
<defs>
<clipPath id="clip0">
<rect width="48" height="48" fill="white"/>
</clipPath>
</defs>
</svg>
