<svg width="48" height="48" viewBox="0 0 48 48" fill="none" xmlns="http://www.w3.org/2000/svg">
<path d="M43.3796 37.7605C42.8601 34.6413 40.673 32.0818 37.6723 31.0816L31.0111 28.8612V27.871H29.4627V29.3234L28.3068 33.9461L25.1799 30.1936H22.9061L19.7791 33.9461L18.624 29.3234V27.871H17.0756V28.8612L10.4145 31.0816C7.41445 32.0818 5.22735 34.6413 4.7071 37.7605L3 48H45.0859L43.3796 37.7605ZM20.2754 46.4516H11.7375L12.4266 39.5613L10.8859 39.4072L10.1814 46.4524H4.82865L6.23458 38.016C6.65961 35.4635 8.44955 33.3701 10.9045 32.551L17.3017 30.4181L19.0173 37.2797L20.7631 35.1848L21.6867 36.5706L20.2754 46.4516ZM26.2475 46.4516H21.8392L23.3032 36.2036L21.7966 33.9437L23.6315 31.7419H24.4545L26.2893 33.9437L24.7827 36.2036L26.2475 46.4516ZM37.9053 46.4516L37.2008 39.4065L35.6601 39.5605L36.3492 46.4508H27.8114L26.4 36.5698L27.3236 35.184L29.0694 37.279L30.785 30.4173L37.1822 32.5502C39.6372 33.3685 41.4263 35.4627 41.8521 38.0152L43.2581 46.4516H37.9053Z" fill="#1E4A3B"/>
<path d="M14.3213 20.8599C14.7161 22.2186 15.4454 23.4643 16.4736 24.4924L19.4929 27.5117C20.2237 28.2426 21.1954 28.6452 22.2297 28.6452H25.8583C26.8919 28.6452 27.8643 28.2426 28.5951 27.5117L31.6145 24.4924C32.6426 23.4643 33.3719 22.2178 33.7667 20.8599C35.6952 20.6416 37.2049 19.0188 37.2049 17.0323C37.2049 15.7618 36.5809 14.6415 35.6325 13.9355H35.6565V9.29032C35.6565 7.35252 34.2243 5.74219 32.3631 5.46271C31.1979 2.22039 28.0803 0 24.601 0H24.0436C17.6403 0 12.4307 5.20955 12.4307 11.6129V13.9355H12.4547C11.5063 14.6415 10.8823 15.7618 10.8823 17.0323C10.8823 19.0188 12.392 20.6416 14.3213 20.8599ZM32.5597 18.4699C32.5597 20.3319 31.8351 22.0815 30.519 23.3977L27.4996 26.417C27.0676 26.849 26.4692 27.0968 25.8575 27.0968H22.2289C21.6173 27.0968 21.0196 26.849 20.5868 26.417L17.5675 23.3977C16.2514 22.0815 15.5267 20.3319 15.5267 18.4707V14.7097H18.5685C21.9757 14.7097 25.1972 13.4996 27.7427 11.2831L27.9796 11.6779C28.9675 13.3246 30.6769 14.4194 32.5597 14.6578V18.4699ZM35.6565 17.0323C35.6565 18.0534 34.9892 18.9135 34.0717 19.2232C34.0934 18.9747 34.1081 18.7239 34.1081 18.4707V14.8521C35.007 15.1726 35.6565 16.0243 35.6565 17.0323ZM13.9791 11.6129C13.9791 6.06348 18.4942 1.54839 24.0436 1.54839H24.601C27.5755 1.54839 30.224 3.54581 31.0416 6.40645L31.2018 6.96774H31.7856C33.0661 6.96774 34.1081 8.00981 34.1081 9.29032V13.2395C33.8581 13.1884 33.5987 13.1613 33.3339 13.1613C31.6942 13.1613 30.1512 12.288 29.3074 10.8813L28.0679 8.81574L27.3665 9.51716C25.0168 11.8668 21.8929 13.1613 18.5693 13.1613H14.7533C14.4885 13.1613 14.2292 13.1884 13.9791 13.2395V11.6129ZM13.9791 14.8521V18.4707C13.9791 18.7239 13.9938 18.9747 14.0155 19.224C13.0981 18.9135 12.4307 18.0534 12.4307 17.0323C12.4307 16.0243 13.0803 15.1726 13.9791 14.8521Z" fill="#1E4A3B"/>
</svg>
