<svg width="18" height="18" viewBox="0 0 18 18" fill="none" xmlns="http://www.w3.org/2000/svg">
<path d="M16.9019 15.9597L12.254 11.3118C13.1355 10.2234 13.6662 8.8398 13.6662 7.33336C13.6662 3.84116 10.825 1 7.33284 1C3.84064 1 0.999512 3.84116 0.999512 7.33336C0.999512 10.8256 3.84068 13.6667 7.33287 13.6667C8.83932 13.6667 10.2229 13.136 11.3113 12.2545L15.9592 16.9024C16.0894 17.0325 16.3004 17.0325 16.4306 16.9024L16.9019 16.4311C17.0321 16.3009 17.0321 16.0898 16.9019 15.9597ZM7.33287 12.3334C4.57571 12.3334 2.33286 10.0905 2.33286 7.33336C2.33286 4.5762 4.57571 2.33335 7.33287 2.33335C10.09 2.33335 12.3329 4.5762 12.3329 7.33336C12.3329 10.0905 10.09 12.3334 7.33287 12.3334Z" fill="white" stroke="#464D54"/>
</svg>
