<svg width="24" height="18" viewBox="0 0 24 18" fill="none" xmlns="http://www.w3.org/2000/svg">
<path d="M23.7886 1.76819L16.5099 9.00002L23.7886 16.2318C23.9202 15.9568 24 15.6528 24 15.3281V2.67189C24 2.34719 23.9202 2.0432 23.7886 1.76819Z" fill="white"/>
<path d="M21.8906 0.5625H2.10939C1.78469 0.5625 1.4807 0.642328 1.20569 0.773907L10.5086 10.03C11.3312 10.8526 12.6688 10.8526 13.4914 10.03L22.7943 0.773907C22.5193 0.642328 22.2153 0.5625 21.8906 0.5625Z" fill="white"/>
<path d="M0.211406 1.76819C0.0798281 2.0432 0 2.34719 0 2.67189V15.3281C0 15.6528 0.0798281 15.9569 0.211406 16.2318L7.49011 9.00002L0.211406 1.76819Z" fill="white"/>
<path d="M15.5156 9.99426L14.4857 11.0242C13.1151 12.3948 10.8849 12.3948 9.51433 11.0242L8.48439 9.99426L1.20569 17.2261C1.4807 17.3577 1.78469 17.4375 2.10939 17.4375H21.8906C22.2153 17.4375 22.5193 17.3577 22.7943 17.2261L15.5156 9.99426Z" fill="white"/>
</svg>
