<svg width="16" height="16" viewBox="0 0 16 16" fill="none" xmlns="http://www.w3.org/2000/svg">
<g clip-path="url(#clip0)">
<path d="M5.83337 11.7413V14.8333C5.83337 15.0493 5.97204 15.2407 6.17737 15.3087C6.22871 15.3253 6.28137 15.3333 6.33337 15.3333C6.48937 15.3333 6.64004 15.26 6.73604 15.1293L8.5447 12.668L5.83337 11.7413Z" fill="white"/>
<path d="M15.79 0.0926037C15.6367 -0.016063 15.4354 -0.0307297 15.2687 0.0566037L0.268696 7.88994C0.091363 7.9826 -0.0133037 8.17194 0.00136299 8.37127C0.0166963 8.57127 0.149363 8.74194 0.33803 8.8066L4.50803 10.2319L13.3887 2.6386L6.5167 10.9179L13.5054 13.3066C13.5574 13.3239 13.612 13.3333 13.6667 13.3333C13.7574 13.3333 13.8474 13.3086 13.9267 13.2606C14.0534 13.1833 14.1394 13.0533 14.1614 12.9073L15.9947 0.573937C16.022 0.38727 15.9434 0.201937 15.79 0.0926037Z" fill="white"/>
</g>
<defs>
<clipPath id="clip0">
<rect width="16" height="16" fill="white"/>
</clipPath>
</defs>
</svg>
