<svg width="20" height="24" viewBox="0 0 20 24" fill="none" xmlns="http://www.w3.org/2000/svg">
<path d="M13.8506 0H1.41264C1.06636 0 0.785645 0.280714 0.785645 0.825429V23.5714C0.785645 23.7193 1.06636 24 1.41264 24H18.5872C18.9335 24 19.2142 23.7193 19.2142 23.5714V5.562C19.2142 5.26371 19.1744 5.16771 19.1041 5.097L14.1172 0.110143C14.0465 0.0398571 13.9505 0 13.8506 0Z" fill="#F6F6F6"/>
<path d="M14.0713 0.0646973V5.14284H19.1494L14.0713 0.0646973Z" fill="#D9D7CA"/>
<path d="M6.36303 14.2818C6.21389 14.2818 6.07075 14.2334 5.9486 14.1421C5.50246 13.8074 5.44246 13.435 5.47075 13.1813C5.54875 12.4836 6.41146 11.7533 8.03575 11.0093C8.68032 9.59669 9.2936 7.85626 9.65917 6.40212C9.23146 5.47126 8.81575 4.26355 9.11875 3.55512C9.22503 3.30698 9.35746 3.11669 9.60475 3.03441C9.70246 3.00184 9.94932 2.96069 10.0402 2.96069C10.2562 2.96069 10.446 3.23884 10.5806 3.41026C10.707 3.57141 10.9937 3.91298 10.4207 6.32541C10.9985 7.51855 11.817 8.73398 12.6013 9.56626C13.1632 9.46469 13.6466 9.41284 14.0405 9.41284C14.7116 9.41284 15.1183 9.56926 15.2842 9.89155C15.4213 10.1581 15.3652 10.4697 15.117 10.8173C14.8783 11.1511 14.5492 11.3277 14.1656 11.3277C13.6445 11.3277 13.0376 10.9985 12.3609 10.3484C11.145 10.6025 9.72517 11.056 8.57746 11.5578C8.21917 12.3181 7.87589 12.9306 7.55617 13.3797C7.11689 13.9947 6.73803 14.2818 6.36303 14.2818ZM7.50389 12.085C6.58803 12.5997 6.21475 13.0227 6.18775 13.261C6.18346 13.3004 6.17189 13.4041 6.37246 13.5576C6.43632 13.5374 6.80917 13.3673 7.50389 12.085ZM13.3483 10.1813C13.6976 10.45 13.7829 10.5858 14.0113 10.5858C14.1116 10.5858 14.3975 10.5816 14.5299 10.3968C14.5937 10.3073 14.6186 10.2498 14.6285 10.219C14.5757 10.1911 14.5059 10.1345 14.1249 10.1345C13.9085 10.135 13.6363 10.1444 13.3483 10.1813ZM10.1469 7.36041C9.84046 8.42069 9.43589 9.56541 9.00089 10.6021C9.8966 10.2546 10.8703 9.95112 11.7849 9.73641C11.2063 9.06441 10.6282 8.22526 10.1469 7.36041ZM9.88675 3.73384C9.84475 3.74798 9.31675 4.48684 9.92789 5.11212C10.3346 4.20569 9.90517 3.72784 9.88675 3.73384Z" fill="#CC4B4C"/>
<path d="M18.5872 24.0001H1.41264C1.06636 24.0001 0.785645 23.7194 0.785645 23.3731V16.7144H19.2142V23.3731C19.2142 23.7194 18.9335 24.0001 18.5872 24.0001Z" fill="#CC4B4C"/>
<path d="M5.4506 22.7143H4.74731V18.396H5.98931C6.17274 18.396 6.35446 18.4251 6.53403 18.4839C6.7136 18.5426 6.87474 18.6304 7.01746 18.7474C7.16017 18.8644 7.27546 19.0063 7.36332 19.1721C7.45117 19.338 7.49532 19.5244 7.49532 19.7319C7.49532 19.9509 7.45803 20.1489 7.38389 20.3267C7.30974 20.5046 7.20603 20.6541 7.07317 20.775C6.94032 20.8959 6.78003 20.9897 6.59274 21.0561C6.40546 21.1226 6.19803 21.1556 5.97174 21.1556H5.45017V22.7143H5.4506ZM5.4506 18.9291V20.64H6.09517C6.18089 20.64 6.26574 20.6254 6.35017 20.5959C6.43417 20.5667 6.51132 20.5187 6.5816 20.4523C6.65189 20.3859 6.70846 20.2933 6.75132 20.1741C6.79417 20.055 6.8156 19.9076 6.8156 19.7319C6.8156 19.6616 6.80574 19.5801 6.78646 19.4889C6.76674 19.3971 6.72689 19.3093 6.66646 19.2253C6.6056 19.1413 6.52074 19.071 6.41146 19.0144C6.30217 18.9579 6.15731 18.9296 5.97774 18.9296H5.4506V18.9291Z" fill="white"/>
<path d="M11.808 20.4351C11.808 20.7904 11.7698 21.0943 11.6935 21.3463C11.6172 21.5983 11.5208 21.8091 11.4034 21.9793C11.286 22.1494 11.1544 22.2831 11.0078 22.3809C10.8612 22.4786 10.7198 22.5514 10.5831 22.6007C10.4464 22.6496 10.3212 22.6809 10.2081 22.6946C10.095 22.7074 10.011 22.7143 9.9561 22.7143H8.32153V18.396H9.62225C9.98568 18.396 10.305 18.4539 10.5801 18.5687C10.8552 18.6836 11.0841 18.8374 11.2658 19.0286C11.4475 19.2197 11.583 19.4379 11.673 19.6817C11.763 19.926 11.808 20.1771 11.808 20.4351ZM9.7221 22.1987C10.1987 22.1987 10.5424 22.0466 10.7532 21.7419C10.9641 21.4371 11.0695 20.9957 11.0695 20.4176C11.0695 20.238 11.0481 20.0601 11.0052 19.8844C10.962 19.7087 10.8792 19.5497 10.7562 19.407C10.6332 19.2643 10.4661 19.149 10.2552 19.0611C10.0444 18.9733 9.77096 18.9291 9.43496 18.9291H9.02482V22.1987H9.7221Z" fill="white"/>
<path d="M13.5425 18.9291V20.2886H15.3472V20.769H13.5425V22.7143H12.8276V18.396H15.5285V18.9291H13.5425Z" fill="white"/>
</svg>
