<svg width="10" height="10" viewBox="0 0 10 10" fill="none" xmlns="http://www.w3.org/2000/svg">
<g clip-path="url(#clip0)">
<path d="M9.75394 4.40621L5.59429 0.246546C5.26621 -0.0815311 4.73412 -0.0815311 4.40604 0.246546C4.07797 0.574624 4.07797 1.10671 4.40604 1.43479L7.97119 4.99992L4.40604 8.56503C4.07797 8.89311 4.07797 9.4252 4.40604 9.75328C4.73412 10.0814 5.26621 10.0814 5.59429 9.75328L9.75394 5.59363C10.082 5.26637 10.082 4.73429 9.75394 4.40621ZM4.75244 4.15433L1.45003 0.673722C1.11819 0.32442 0.580712 0.32442 0.248877 0.673722C-0.0829589 1.02302 -0.0829589 1.58967 0.248877 1.9394L2.95093 4.78717L0.248877 7.63493C-0.0829589 7.98425 -0.0829589 8.55129 0.248877 8.90061C0.580712 9.24993 1.11819 9.24993 1.45003 8.90061L4.75244 5.42C5.08427 5.0707 5.08427 4.50405 4.75244 4.15433Z" fill="#016B45"/>
</g>
<defs>
<clipPath id="clip0">
<rect width="10" height="10" fill="white"/>
</clipPath>
</defs>
</svg>
