<svg width="10" height="14" viewBox="0 0 10 14" fill="none" xmlns="http://www.w3.org/2000/svg">
<path fill-rule="evenodd" clip-rule="evenodd" d="M0.278072 5.77324C-0.0665984 5.44551 -0.0947051 4.88741 0.215294 4.52671L3.6032 0.584626L3.60315 0.584572L3.61647 0.569249C4.23306 -0.138653 5.27795 -0.193369 5.96476 0.444708L5.986 0.464567L9.72094 4.016C10.0674 4.34541 10.0956 4.90634 9.78404 5.26889C9.47246 5.63143 8.93905 5.65829 8.59262 5.32889L6 2.86366V12.5011C6 13.0534 5.55228 13.5011 5 13.5011C4.44772 13.5011 4 13.0534 4 12.5011V2.76209L1.46346 5.71354C1.15346 6.07425 0.622743 6.10098 0.278072 5.77324Z" fill="#838383"/>
</svg>
