<svg width="10" height="14" viewBox="0 0 10 14" fill="none" xmlns="http://www.w3.org/2000/svg">
<path fill-rule="evenodd" clip-rule="evenodd" d="M0.278072 5.77324C-0.0665984 5.44551 -0.0947051 4.88741 0.215294 4.52671L3.60318 0.584659L3.60309 0.584576L3.62218 0.562731C4.24137 -0.141133 5.28644 -0.19172 5.97105 0.450575L5.98594 0.464571L9.72088 4.01601C10.0673 4.34541 10.0956 4.90635 9.78398 5.26889C9.4724 5.63143 8.93899 5.6583 8.59256 5.32889L5.99999 2.86371V12.5012C5.99999 13.0535 5.55228 13.5012 4.99999 13.5012C4.44771 13.5012 3.99999 13.0535 3.99999 12.5012V2.7621L1.46346 5.71354C1.15346 6.07425 0.622743 6.10098 0.278072 5.77324Z" fill="#03396B"/>
</svg>
