<svg width="20" height="20" fill="none" xmlns="http://www.w3.org/2000/svg"><path d="M15.775 12.382l-3.428-1.371a4.094 4.094 0 001.755-3.355 4.1 4.1 0 00-.05-.586h.636a.586.586 0 00.585-.586c0-.954-.465-1.795-1.174-2.33 0-.005.003-.009.003-.013V2.93A2.933 2.933 0 0011.172 0H8.828a2.933 2.933 0 00-2.93 2.93v1.21c0 .005.003.009.003.013a2.917 2.917 0 00-1.174 2.331c0 .324.262.586.585.586h.636a4.1 4.1 0 00-.05.586c0 1.388.697 2.612 1.755 3.355l-3.428 1.371a2.915 2.915 0 00-1.842 2.72v4.312c0 .324.262.586.586.586h1.758v-2.969c0-.087.029-.198.061-.262l1.172-2.344a.586.586 0 01.524-.323h7.032c.222 0 .424.125.524.323l1.172 2.344a.658.658 0 01.061.262V20h1.758a.586.586 0 00.586-.586v-4.312a2.915 2.915 0 00-1.842-2.72zM10 12.687l-.93-.93h1.86l-.93.93zm0-2.101a2.933 2.933 0 01-2.93-2.93c0-.199.026-.394.065-.586h5.73c.039.192.065.387.065.586a2.933 2.933 0 01-2.93 2.93z" fill="#016B45"/><path d="M14.102 17.617H5.898V20h8.204v-2.383zm-.949-2.344H6.847l-.586 1.172h7.478l-.586-1.172z" fill="#016B45"/></svg>