<svg width="24" height="18" fill="none" xmlns="http://www.w3.org/2000/svg"><path d="M23.789 1.768L16.509 9l7.28 7.232c.131-.275.211-.58.211-.904V2.672c0-.325-.08-.629-.211-.904zM21.89.563H2.11c-.325 0-.63.08-.904.21l9.303 9.257a2.11 2.11 0 002.982 0L22.794.774a2.085 2.085 0 00-.903-.212zM.211 1.768A2.085 2.085 0 000 2.672v12.656c0 .325.08.629.211.904L7.491 9 .21 1.768z" fill="#fff"/><path d="M15.516 9.994l-1.03 1.03a3.52 3.52 0 01-4.972 0l-1.03-1.03-7.278 7.232c.275.132.579.212.903.212h19.782c.324 0 .628-.08.903-.212l-7.278-7.232z" fill="#fff"/></svg>