<?xml version="1.0" standalone="no"?>
<!DOCTYPE svg PUBLIC "-//W3C//DTD SVG 20010904//EN"
 "http://www.w3.org/TR/2001/REC-SVG-20010904/DTD/svg10.dtd">
<svg version="1.0" xmlns="http://www.w3.org/2000/svg"
 width="512.000000pt" height="512.000000pt" viewBox="0 0 512.000000 512.000000"
 preserveAspectRatio="xMidYMid meet">
<metadata>
Created by potrace 1.11, written by Peter Selinger 2001-2013
</metadata>
<g transform="translate(0.000000,512.000000) scale(0.100000,-0.100000)"
fill="#000000" stroke="none">
<path d="M745 4808 c-3 -7 -170 -816 -372 -1798 l-366 -1785 0 -135 c0 -120 3
-144 27 -220 49 -150 127 -273 250 -395 79 -77 184 -161 192 -153 3 3 183 862
400 1909 217 1047 397 1912 400 1922 5 16 48 17 709 17 l703 0 11 -51 c19 -85
251 -1221 251 -1225 0 -2 -142 -4 -315 -4 -173 0 -315 -3 -315 -7 0 -5 -29
-149 -65 -322 -36 -173 -63 -316 -61 -318 1 -2 349 -2 773 -1 l770 3 -262
1285 -261 1285 -1232 3 c-981 2 -1234 0 -1237 -10z"/>
<path d="M3541 4798 c0 -7 208 -1021 462 -2253 l463 -2240 328 -3 328 -2 -5
22 c-3 13 -177 869 -387 1903 -210 1034 -388 1909 -397 1945 -66 276 -286 487
-617 595 -129 41 -176 50 -175 33z"/>
<path d="M1171 2088 c-200 -970 -366 -1769 -369 -1775 -3 -10 333 -13 1662
-13 1468 0 1666 2 1666 15 0 12 -308 1520 -325 1593 l-5 22 -840 0 c-462 0
-840 -2 -840 -4 0 -8 -121 -601 -126 -618 -5 -17 32 -18 638 -20 l643 -3 21
-85 c12 -47 28 -115 37 -152 l15 -68 -875 0 -875 0 5 23 c10 39 447 2182 447
2190 0 4 118 7 261 7 244 0 261 1 257 18 -3 9 -31 155 -64 324 l-59 308 -455
0 -456 0 -363 -1762z"/>
</g>
</svg>
