<svg width="15" height="12" viewBox="0 0 15 12" fill="none" xmlns="http://www.w3.org/2000/svg">
<path d="M14.881 1.69997L13.4091 0.228034C13.2503 0.0692523 12.9929 0.0692523 12.8342 0.228034L5.25959 7.80219L2.55745 5.10026C2.39867 4.94147 2.14129 4.94147 1.9825 5.10026L0.510571 6.57219C0.434331 6.64843 0.391434 6.75191 0.391434 6.85966C0.391434 6.96742 0.434331 7.0709 0.510571 7.14714L4.97212 11.6083C5.05161 11.6878 5.1555 11.7274 5.25959 11.7274C5.36389 11.7274 5.46737 11.6878 5.54706 11.6083L14.8808 2.27492C14.9571 2.19868 15 2.09519 15 1.98744C15 1.87969 14.9573 1.77621 14.881 1.69997Z" fill="#016B45"/>
</svg>
