<svg width="101" height="31" fill="none" xmlns="http://www.w3.org/2000/svg"><path d="M26.52 30.998l-2.147-11.171H13.602l-.835 4.422h8.252l.457 2.126H10.25l2.918-15.29h3.315l-.815-4.471H9.846L5.144 30.998H26.52zM22.68.04L28.641 31h4.192L27.838 4.654C27.158 1.128 23.688.228 22.68.04z" fill="#fff"/><path d="M20.606.004H4.776L.112 24.407l-.015.12c-.649 3.555 2.13 5.805 2.97 6.394L8.19 4.475h9.062l1.674 8.758h-4.033l-.855 4.472h9.93L20.607.004zm39.22-.003h4.503c.036 0 .369-.013.785.04 1.139.143 2.534.691 3.108 3.467l3.21 17.202h-3.439L64.696 3.151h-1.998L59.4 20.71h-3.44L59.827 0zm-8.281 20.708h3.44L51.12 0h-4.502c-.037 0-.37-.013-.786.04-1.138.143-2.534.691-3.108 3.467l-3.207 17.2h3.439l1.208-6.434h6.175l1.206 6.435zm-6.755-9.774l1.461-7.784h1.998l1.461 7.784h-4.92zm39.768-.917c.624-.436 1.1-.967 1.415-1.583.37-.719.557-1.711.557-2.946 0-1.893-.502-3.299-1.49-4.176C84.06.445 82.577.006 80.63.006h-7.29v20.707h7.508c4.078 0 6.145-2.005 6.145-5.958.001-2.307-.818-3.9-2.435-4.737zm-7.788-1.37v-5.37h3.698c1.735 0 2.58.849 2.58 2.595 0 1.867-.809 2.774-2.472 2.774H76.77v.002zm6.713 5.988c0 1.034-.228 1.765-.678 2.174-.46.418-1.173.629-2.12.629H76.77v-5.577h3.86c.826 0 1.52.211 2.065.625.524.4.788 1.123.788 2.149zm8.878 2.744v-5.49h6.74V8.619h-6.74v-5.31h8.306l-.101-.29C99.739.635 98.331.11 97.564.007L88.932.005v20.707h11.804V17.38h-8.375v-.001zM41.302 30.868v-5.33h-1.818v-1.256h5.18v1.256h-1.817v5.33h-1.545zm9.241-4.508c0 .308-.045.6-.137.877-.09.277-.221.509-.393.695a2.74 2.74 0 01-.344.318 2.11 2.11 0 01-.416.248 2.539 2.539 0 01-.494.16 2.847 2.847 0 01-.597.057h-.81v2.154h-1.544v-6.587h2.389c.354 0 .661.034.918.104.258.07.492.18.701.33.232.165.41.385.537.66.127.276.19.605.19.985zm-1.587.041a.9.9 0 00-.124-.48.67.67 0 00-.297-.277 1.241 1.241 0 00-.419-.117 7.217 7.217 0 00-.543-.016h-.22v1.974h.108c.147 0 .283-.002.413-.004.13-.003.242-.014.338-.03.083-.015.17-.044.263-.087a.67.67 0 00.213-.143.882.882 0 00.213-.34 1.67 1.67 0 00.055-.48zm2.261 4.469l2.078-6.588h1.685l2.078 6.587h-1.59l-.384-1.345H53.15l-.385 1.345h-1.548zm3.528-2.54l-.628-2.172-.629 2.172h1.257zm8.625 2.54h-1.545v-2.921h-2.102v2.92h-1.545v-6.587h1.545v2.411h2.102v-2.411h1.545v6.587zm4.433.12c-.922 0-1.655-.299-2.197-.896-.542-.598-.814-1.437-.814-2.52 0-1.045.272-1.877.815-2.497.545-.621 1.278-.931 2.2-.931a4.113 4.113 0 011.223.169c.14.045.293.104.459.18.165.077.299.143.4.2v1.57h-.156a7.814 7.814 0 00-.281-.254 3.676 3.676 0 00-.385-.29 2.397 2.397 0 00-.473-.241 1.622 1.622 0 00-1.153.013 1.463 1.463 0 00-.53.391 1.893 1.893 0 00-.379.681 3.153 3.153 0 00-.146 1.013c0 .41.05.755.152 1.033.103.278.236.504.4.674.16.165.338.285.535.359.197.074.393.11.59.11.202 0 .397-.035.582-.108a2.26 2.26 0 00.467-.24c.138-.092.258-.186.363-.28.105-.094.196-.177.272-.251h.14v1.549l-.392.192a3.44 3.44 0 01-.459.183c-.193.062-.373.11-.54.142a3.766 3.766 0 01-.692.048zm8.927-.121h-1.842l-1.648-2.66h-.388v2.66h-1.545V24.28h1.544v2.686c.243-.012.424-.069.544-.173.12-.103.262-.33.427-.682.047-.103.101-.225.163-.366.061-.142.116-.266.164-.372.178-.399.396-.682.655-.853.259-.17.597-.254 1.019-.254a10.04 10.04 0 01.552.013v1.412h-.354a.667.667 0 00-.46.175c-.131.116-.264.348-.4.696a3.36 3.36 0 01-.304.63.957.957 0 01-.266.291l2.14 3.385zm.347.001l2.078-6.588h1.685l2.078 6.587h-1.59l-.385-1.345H79.01l-.384 1.345h-1.548zm3.528-2.54l-.629-2.172-.628 2.172h1.257zm8.168-1.97c0 .308-.046.6-.137.877a1.876 1.876 0 01-.393.695c-.105.114-.22.221-.345.318a2.11 2.11 0 01-.415.248 2.538 2.538 0 01-.494.16 2.849 2.849 0 01-.597.057h-.81v2.154h-1.544v-6.587h2.388c.355 0 .662.034.92.104.257.07.49.18.7.33.232.165.41.385.537.66.126.276.19.605.19.985zm-1.587.041a.9.9 0 00-.124-.48.671.671 0 00-.297-.277 1.235 1.235 0 00-.419-.117 7.222 7.222 0 00-.543-.016h-.22v1.974h.108c.145 0 .283-.002.412-.004.13-.003.243-.014.34-.03.082-.015.17-.044.262-.087a.67.67 0 00.213-.143.88.88 0 00.213-.34 1.67 1.67 0 00.055-.48zm7.068-.862h-2.602v5.33h-1.545v-6.587h4.147v1.257zM101 27.571c0 1.065-.266 1.903-.797 2.513-.53.611-1.26.916-2.185.916-.93 0-1.657-.309-2.186-.928-.528-.617-.793-1.452-.793-2.502 0-1.06.265-1.895.793-2.51.529-.615 1.258-.922 2.186-.922.925 0 1.654.306 2.185.918.531.612.797 1.45.797 2.515zm-1.594-.005c0-.392-.038-.727-.113-1.002a2.167 2.167 0 00-.303-.68 1.19 1.19 0 00-.449-.386 1.214 1.214 0 00-.518-.118c-.19 0-.362.036-.516.109a1.27 1.27 0 00-.446.386 2.06 2.06 0 00-.308.682 3.816 3.816 0 00-.119 1.013c0 .404.037.74.112 1.007.076.266.177.49.306.67a1.161 1.161 0 00.97.509 1.174 1.174 0 00.971-.519 2.23 2.23 0 00.306-.67c.071-.253.107-.588.107-1z" fill="#fff"/></svg>