<svg version="1.1" id="Слой_1" xmlns="http://www.w3.org/2000/svg" x="0" y="0" viewBox="0 0 1658.52 260" xml:space="preserve"><style>.st76{fill:#007036}</style><path class="st76" d="M227.79 247.5l-17.43-84.69h-87.44l-6.78 33.52h66.99l3.71 16.12H95.72l23.69-115.91h26.91l-6.62-33.9H92.43L54.26 247.5zM196.62 12.79l48.39 234.71h34.03L238.49 47.77c-5.52-26.73-33.69-33.55-41.87-34.98z"/><path class="st76" d="M179.78 12.5H51.27l-37.86 185-.12.91c-5.27 26.95 17.29 44.01 24.1 48.47L78.99 46.4h73.56l13.59 66.39H133.4l-6.94 33.9h80.62L179.78 12.5zm318.39.01h36.55c.3 0 3-.1 6.38.3 9.24 1.08 20.57 5.24 25.23 26.28l26.06 130.41h-27.92L537.7 36.39h-16.22l-26.76 133.1H466.8l31.37-156.98zm-67.22 156.98h27.92L427.5 12.51h-36.55c-.3 0-3-.1-6.38.3-9.24 1.08-20.57 5.24-25.23 26.28l-26.04 130.4h27.92l9.81-48.78h50.13l9.79 48.78zM376.11 95.4l11.86-59.01h16.22l11.86 59.01h-39.94zm322.83-6.98c5.07-3.3 8.93-7.33 11.49-12 3-5.45 4.52-12.97 4.52-22.33 0-14.35-4.07-25.01-12.1-31.66-7.94-6.58-19.98-9.91-35.79-9.91h-59.18V169.5h60.95c33.1 0 49.88-15.2 49.88-45.17.01-17.49-6.64-29.56-19.77-35.91zm-63.22-10.38V37.32h30.02c14.09 0 20.94 6.44 20.94 19.68 0 14.15-6.56 21.03-20.06 21.03h-30.9zm54.5 45.39c0 7.84-1.85 13.38-5.51 16.48-3.73 3.17-9.52 4.77-17.2 4.77h-31.79V102.4h31.34c6.7 0 12.34 1.6 16.76 4.74 4.25 3.03 6.4 8.51 6.4 16.29zm72.07 20.8v-41.61h54.72V77.81h-54.72V37.55h67.43l-.82-2.2c-6.72-18.05-18.15-22.04-24.37-22.82l-70.08-.01V169.5h95.83v-25.26h-67.99zm-414.5 102.23v-40.41h-14.76v-9.52h42.06v9.52h-14.76v40.41h-12.54zm75.02-34.18c0 2.33-.37 4.54-1.11 6.64-.74 2.1-1.8 3.86-3.19 5.27-.85.87-1.78 1.68-2.8 2.41s-2.14 1.36-3.37 1.88c-1.23.51-2.57.92-4.01 1.21-1.44.29-3.06.44-4.85.44h-6.57v16.33h-12.54v-49.94h19.39c2.88 0 5.37.26 7.46.79s3.99 1.36 5.69 2.5c1.88 1.25 3.33 2.92 4.36 5.01 1.03 2.09 1.54 4.58 1.54 7.46zm-12.88.31c0-1.41-.34-2.62-1.01-3.64s-1.48-1.72-2.41-2.1c-1.19-.51-2.32-.81-3.4-.89-1.08-.08-2.55-.12-4.41-.12h-1.78v14.96h.87c1.19 0 2.3-.01 3.35-.03 1.05-.02 1.97-.1 2.75-.23.67-.11 1.38-.33 2.13-.65s1.33-.69 1.73-1.09c.85-.83 1.43-1.69 1.73-2.58.3-.91.45-2.11.45-3.63zm18.35 33.87l16.87-49.94h13.68l16.87 49.94h-12.91l-3.12-10.2h-15.7l-3.12 10.2h-12.57zm28.64-19.25l-5.1-16.47-5.1 16.47h10.2zm70.02 19.25H514.4v-22.14h-17.07v22.14h-12.54v-49.94h12.54v18.28h17.07v-18.28h12.54v49.94zm35.99.97c-7.49 0-13.44-2.26-17.84-6.79s-6.61-10.89-6.61-19.1c0-7.92 2.21-14.23 6.62-18.93 4.42-4.71 10.37-7.06 17.86-7.06 1.99 0 3.78.11 5.37.34 1.59.22 3.11.54 4.56.94 1.14.34 2.38.79 3.72 1.37 1.34.58 2.43 1.08 3.25 1.51v11.91h-1.27c-.6-.54-1.36-1.18-2.28-1.93a29.83 29.83 0 00-3.12-2.2 20.03 20.03 0 00-3.84-1.83c-1.4-.5-2.86-.76-4.38-.76-1.81 0-3.47.29-4.98.86-1.51.57-2.95 1.56-4.31 2.97-1.25 1.27-2.28 3-3.07 5.16-.79 2.17-1.19 4.73-1.19 7.68 0 3.11.41 5.72 1.24 7.83.83 2.11 1.91 3.82 3.25 5.11 1.3 1.25 2.74 2.16 4.34 2.72 1.6.56 3.19.84 4.78.84 1.65 0 3.23-.27 4.73-.82 1.5-.55 2.76-1.16 3.79-1.83 1.12-.69 2.1-1.4 2.95-2.11.85-.72 1.59-1.35 2.21-1.91h1.14v11.74c-.92.43-1.98.91-3.19 1.46-1.21.55-2.45 1.01-3.72 1.39-1.57.47-3.03.83-4.39 1.07-1.35.25-3.23.37-5.62.37zm72.47-.97h-14.96l-13.38-20.16h-3.15v20.16h-12.54v-49.94h12.54v20.36c1.97-.09 3.44-.52 4.41-1.31.97-.78 2.13-2.5 3.47-5.17.38-.78.82-1.71 1.32-2.78.5-1.07.94-2.01 1.33-2.82 1.45-3.02 3.22-5.17 5.32-6.46s4.85-1.93 8.27-1.93c1.12 0 2.05.02 2.78.05.74.03 1.31.05 1.71.05v10.7h-2.88c-1.43 0-2.68.44-3.74 1.33-1.06.88-2.14 2.64-3.24 5.28-.87 2.1-1.69 3.69-2.47 4.78-.77 1.08-1.49 1.82-2.16 2.2l17.37 25.66zm2.81 0l16.87-49.94h13.68l16.87 49.94h-12.91l-3.12-10.2h-15.7l-3.12 10.2h-12.57zm28.64-19.25l-5.1-16.47-5.1 16.47h10.2zm66.31-14.93c0 2.33-.37 4.54-1.11 6.64-.74 2.1-1.8 3.86-3.19 5.27-.85.87-1.78 1.68-2.8 2.41s-2.14 1.36-3.37 1.88c-1.23.51-2.57.92-4.01 1.21-1.44.29-3.06.44-4.85.44h-6.57v16.33h-12.54v-49.94h19.39c2.88 0 5.37.26 7.46.79s3.99 1.36 5.69 2.5c1.88 1.25 3.33 2.92 4.36 5.01 1.02 2.09 1.54 4.58 1.54 7.46zm-12.88.31c0-1.41-.34-2.62-1.01-3.64s-1.48-1.72-2.41-2.1c-1.18-.51-2.32-.81-3.4-.89-1.08-.08-2.55-.12-4.41-.12h-1.78v14.96h.87c1.18 0 2.3-.01 3.35-.03 1.05-.02 1.97-.1 2.75-.23.67-.11 1.38-.33 2.13-.65s1.33-.69 1.73-1.09c.85-.83 1.43-1.69 1.73-2.58.3-.91.45-2.11.45-3.63zm57.38-6.54h-21.13v40.41h-12.54v-49.94h33.67v9.53zm54.76 15.46c0 8.07-2.16 14.42-6.47 19.05s-10.23 6.94-17.74 6.94c-7.54 0-13.45-2.34-17.74-7.03-4.29-4.68-6.44-11.01-6.44-18.97 0-8.03 2.15-14.37 6.44-19.03 4.29-4.66 10.21-6.99 17.74-6.99 7.51 0 13.43 2.32 17.74 6.96 4.31 4.64 6.47 11 6.47 19.07zm-12.94-.04c0-2.97-.31-5.51-.92-7.6-.62-2.09-1.44-3.81-2.46-5.15-1.07-1.36-2.29-2.34-3.64-2.93-1.35-.59-2.76-.89-4.21-.89-1.54 0-2.94.27-4.19.82-1.25.55-2.46 1.53-3.62 2.93-1.03 1.3-1.86 3.02-2.5 5.17-.64 2.15-.96 4.71-.96 7.68 0 3.06.3 5.61.91 7.63s1.43 3.72 2.48 5.08c1.07 1.39 2.29 2.38 3.66 2.97 1.36.59 2.77.89 4.22.89 1.48 0 2.91-.32 4.29-.96 1.39-.64 2.58-1.63 3.59-2.97 1.07-1.45 1.9-3.15 2.48-5.08.58-1.92.87-4.46.87-7.59zM967.19 63.44V23.06h-14.75v-9.52h42.02v9.52h-14.75v40.38h-12.52zm70.85-34.15c0 2.32-.37 4.54-1.11 6.64-.74 2.1-1.8 3.85-3.18 5.26-.85.87-1.78 1.68-2.8 2.41-1.02.74-2.14 1.36-3.37 1.88s-2.56.92-4 1.21c-1.44.29-3.05.44-4.84.44h-6.57v16.32h-12.53v-49.9H1019c2.88 0 5.37.26 7.46.79s3.98 1.36 5.68 2.5c1.88 1.25 3.33 2.92 4.36 5.01 1.03 2.07 1.54 4.56 1.54 7.44zm-12.87.3c0-1.41-.34-2.62-1.01-3.64-.67-1.02-1.47-1.71-2.41-2.09-1.19-.51-2.32-.81-3.4-.89-1.08-.08-2.55-.12-4.41-.12h-1.78V37.8h.87c1.18 0 2.3-.01 3.35-.03 1.05-.02 1.97-.1 2.75-.23.67-.11 1.38-.33 2.13-.65s1.32-.69 1.73-1.09c.85-.83 1.43-1.69 1.73-2.58.3-.9.45-2.11.45-3.63zm14.21 33.85l16.86-49.9h13.67l16.86 49.9h-12.9l-3.12-10.19h-15.68l-3.12 10.19h-12.57zM1068 44.2l-5.09-16.45-5.09 16.45H1068zm65.85 19.24h-12.53V41.32h-17.06v22.12h-12.53v-49.9h12.53V31.8h17.06V13.54h12.53v49.9zm31.84.97c-7.49 0-13.43-2.26-17.83-6.79-4.4-4.52-6.6-10.89-6.6-19.09 0-7.91 2.21-14.21 6.62-18.92 4.41-4.7 10.36-7.05 17.85-7.05 1.99 0 3.77.11 5.36.34 1.59.22 3.1.54 4.56.94 1.14.34 2.38.79 3.72 1.37 1.34.58 2.42 1.08 3.25 1.51v11.9h-1.27c-.6-.54-1.36-1.18-2.28-1.93-.92-.75-1.96-1.48-3.12-2.2s-2.44-1.32-3.84-1.83c-1.4-.5-2.85-.75-4.37-.75-1.81 0-3.47.29-4.98.85-1.51.57-2.94 1.56-4.31 2.97-1.25 1.27-2.27 2.99-3.07 5.16-.79 2.17-1.19 4.73-1.19 7.67 0 3.11.41 5.71 1.24 7.83.83 2.11 1.91 3.81 3.25 5.11 1.29 1.25 2.74 2.16 4.34 2.71 1.6.56 3.19.84 4.78.84 1.65 0 3.23-.27 4.73-.82 1.5-.55 2.76-1.16 3.79-1.83 1.12-.69 2.1-1.4 2.95-2.11.85-.71 1.59-1.35 2.21-1.91h1.14v11.73c-.92.43-1.98.91-3.18 1.46-1.21.55-2.45 1.01-3.72 1.39-1.56.47-3.03.83-4.39 1.07-1.38.26-3.25.38-5.64.38zm66.42-.97h-12.53V23.06h-17.06v40.38h-12.53v-49.9h42.12v49.9zm55.76-24.93c0 8.07-2.16 14.41-6.47 19.03-4.31 4.62-10.22 6.94-17.73 6.94-7.53 0-13.44-2.34-17.73-7.02-4.29-4.68-6.43-11-6.43-18.95 0-8.02 2.14-14.36 6.43-19.02 4.29-4.66 10.2-6.99 17.73-6.99 7.51 0 13.42 2.32 17.73 6.95 4.32 4.64 6.47 10.99 6.47 19.06zm-12.93-.04c0-2.97-.31-5.5-.92-7.59-.61-2.09-1.44-3.8-2.46-5.14-1.07-1.36-2.28-2.34-3.64-2.93a10.4 10.4 0 00-4.21-.89c-1.54 0-2.94.27-4.19.82-1.25.55-2.46 1.53-3.62 2.93-1.03 1.3-1.86 3.02-2.5 5.16-.64 2.14-.96 4.7-.96 7.67 0 3.06.3 5.6.91 7.62.6 2.02 1.43 3.71 2.48 5.08 1.07 1.39 2.29 2.37 3.65 2.97 1.36.59 2.77.89 4.22.89 1.47 0 2.9-.32 4.29-.95 1.39-.64 2.58-1.63 3.59-2.97 1.07-1.45 1.9-3.14 2.48-5.08.59-1.93.88-4.46.88-7.59zm58.74-9.18c0 2.32-.37 4.54-1.11 6.64-.74 2.1-1.8 3.85-3.18 5.26-.85.87-1.78 1.68-2.8 2.41a16.91 16.91 0 01-3.37 1.88c-1.23.51-2.56.92-4.01 1.21-1.44.29-3.05.44-4.84.44h-6.57v16.32h-12.53v-49.9h19.37c2.88 0 5.37.26 7.46.79s3.98 1.36 5.68 2.5c1.88 1.25 3.33 2.92 4.36 5.01 1.03 2.07 1.54 4.56 1.54 7.44zm-12.86.3c0-1.41-.34-2.62-1.01-3.64-.67-1.02-1.47-1.71-2.41-2.09-1.18-.51-2.32-.81-3.4-.89-1.08-.08-2.55-.12-4.41-.12h-1.78V37.8h.87c1.18 0 2.3-.01 3.35-.03s1.97-.1 2.75-.23c.67-.11 1.38-.33 2.13-.65s1.32-.69 1.73-1.09c.85-.83 1.42-1.69 1.73-2.58.3-.9.45-2.11.45-3.63zm29.15 33.85V23.06h-14.75v-9.52h42.02v9.52h-14.75v40.38h-12.52zm74.57 0H1412V41.32h-17.06v22.12h-12.53v-49.9h12.53V31.8H1412V13.54h12.53v49.9zm55.76-24.93c0 8.07-2.16 14.41-6.47 19.03s-10.22 6.94-17.73 6.94c-7.53 0-13.44-2.34-17.73-7.02s-6.43-11-6.43-18.95c0-8.02 2.14-14.36 6.43-19.02 4.29-4.66 10.2-6.99 17.73-6.99 7.51 0 13.42 2.32 17.73 6.95s6.47 10.99 6.47 19.06zm-12.94-.04c0-2.97-.31-5.5-.92-7.59-.61-2.09-1.44-3.8-2.46-5.14-1.07-1.36-2.28-2.34-3.64-2.93a10.4 10.4 0 00-4.21-.89c-1.54 0-2.94.27-4.19.82s-2.46 1.53-3.62 2.93c-1.03 1.3-1.86 3.02-2.5 5.16s-.95 4.7-.95 7.67c0 3.06.3 5.6.9 7.62.6 2.02 1.43 3.71 2.48 5.08 1.07 1.39 2.29 2.37 3.65 2.97 1.36.59 2.77.89 4.22.89 1.47 0 2.9-.32 4.29-.95 1.39-.64 2.58-1.63 3.59-2.97 1.07-1.45 1.9-3.14 2.48-5.08.6-1.93.88-4.46.88-7.59zm41.09 7.61h-22.22v-9.32h22.22v9.32zm-514.31 83.2c0 8.4-2.24 14.94-6.72 19.62-4.48 4.68-10.54 7.02-18.18 7.02-3.57 0-6.89-.46-9.94-1.37-3.05-.92-5.33-1.74-6.85-2.48v-11.29h1.17c.42.38 1.14.97 2.16 1.76 1.02.79 2.02 1.45 3 1.96 1.3.67 2.69 1.22 4.17 1.64 1.49.43 3.12.64 4.91.64 1.41 0 2.88-.2 4.42-.6s2.96-1.11 4.26-2.11c1.34-1.05 2.47-2.39 3.4-4.02.93-1.63 1.51-3.77 1.76-6.4h-19.87v-9.52h19.6c-.33-1.97-.92-3.64-1.74-5.01-.83-1.37-1.85-2.51-3.08-3.4-1.21-.87-2.5-1.5-3.87-1.89-1.37-.39-2.78-.59-4.21-.59-1.72 0-3.3.22-4.74.65-1.44.44-2.8.99-4.07 1.66-1.23.67-2.29 1.37-3.18 2.09-.89.73-1.6 1.3-2.11 1.73h-1.31v-11.39c2.14-1.05 4.65-1.96 7.51-2.73 2.86-.77 6.02-1.16 9.48-1.16 7.33 0 13.16 2.26 17.51 6.79 4.34 4.51 6.52 10.65 6.52 18.4zm51.41 25.67h-14.95l-13.37-20.14h-3.15v20.14h-12.53v-49.9h12.53v20.34c1.97-.09 3.43-.52 4.41-1.31s2.13-2.5 3.47-5.16c.38-.78.82-1.71 1.32-2.78l1.32-2.82c1.45-3.02 3.22-5.17 5.31-6.45 2.09-1.29 4.84-1.93 8.26-1.93 1.12 0 2.04.02 2.78.05.74.03 1.31.05 1.71.05v10.69h-2.88c-1.43 0-2.68.44-3.74 1.32-1.06.88-2.14 2.64-3.23 5.28-.87 2.1-1.69 3.69-2.46 4.78-.77 1.08-1.49 1.82-2.16 2.2l17.36 25.64zm25.57.97c-7.48 0-13.43-2.26-17.83-6.79-4.4-4.52-6.6-10.89-6.6-19.09 0-7.91 2.21-14.21 6.62-18.92 4.41-4.7 10.36-7.05 17.85-7.05 1.99 0 3.78.11 5.36.34 1.59.22 3.11.54 4.56.94 1.14.34 2.38.79 3.72 1.37 1.34.58 2.42 1.08 3.25 1.51v11.9h-1.27c-.6-.54-1.36-1.18-2.28-1.93a29.83 29.83 0 00-3.12-2.2c-1.16-.71-2.44-1.32-3.84-1.83-1.4-.5-2.85-.75-4.37-.75-1.81 0-3.47.29-4.98.85-1.51.57-2.94 1.56-4.31 2.97-1.25 1.27-2.27 2.99-3.07 5.16-.79 2.17-1.19 4.73-1.19 7.67 0 3.11.41 5.71 1.24 7.83.83 2.11 1.91 3.81 3.25 5.11 1.3 1.25 2.74 2.16 4.34 2.71 1.6.56 3.19.84 4.78.84 1.65 0 3.23-.27 4.72-.82 1.5-.55 2.76-1.16 3.79-1.83 1.12-.69 2.1-1.4 2.95-2.11.85-.71 1.59-1.35 2.21-1.91h1.14v11.73c-.92.43-1.98.91-3.18 1.46-1.21.55-2.45 1.01-3.72 1.39-1.56.47-3.03.83-4.39 1.07-1.37.26-3.24.38-5.63.38zm66.42-.97H1125v-40.38h-17.06v40.38h-12.53v-49.9h42.13v49.9zm10.32 0v-49.9h33.75v9.52h-21.28v8.75h19.6v9.52h-19.6v12.6h21.28v9.52h-33.75zm88.34 11.46h-11.5v-11.63h-27.88v11.63h-11.5V145.4h3.35c2.35-4.87 4.2-10.8 5.56-17.78 1.36-6.98 2.04-14.5 2.04-22.57h35.19v40.35h4.73v21.01zm-17.26-21.01v-30.83h-10.93c-.42 6.03-1.26 11.69-2.51 16.97-1.25 5.28-2.83 9.9-4.73 13.86h18.17zm66.89 9.55h-12.33v-32.88l-19.17 32.88h-11.6v-49.9h12.33v29.72l17.73-29.72h13.04v49.9zm56.87 11.46h-11.49v-11.46h-35.26v-49.9h12.53v40.41h16.96v-40.41h12.53v40.41h4.72v20.95zm49.63-11.46H1380v-32.88l-19.17 32.88h-11.6v-49.9h12.33v29.72l17.73-29.72h13.04v49.9zm55.56-24.93c0 8.07-2.16 14.41-6.47 19.04-4.31 4.62-10.22 6.94-17.73 6.94-7.53 0-13.44-2.34-17.73-7.02s-6.43-11-6.43-18.95c0-8.02 2.14-14.36 6.43-19.02 4.29-4.66 10.2-6.99 17.73-6.99 7.51 0 13.42 2.32 17.73 6.95 4.32 4.63 6.47 10.98 6.47 19.05zm-12.93-.04c0-2.97-.31-5.5-.92-7.59-.61-2.09-1.44-3.8-2.46-5.14-1.07-1.36-2.28-2.34-3.64-2.93a10.4 10.4 0 00-4.21-.89c-1.54 0-2.94.27-4.19.82-1.25.55-2.46 1.53-3.62 2.93-1.03 1.3-1.86 3.02-2.5 5.16-.64 2.14-.95 4.7-.95 7.67 0 3.06.3 5.6.9 7.62.6 2.02 1.43 3.71 2.48 5.08 1.07 1.39 2.29 2.37 3.65 2.97 1.36.59 2.77.89 4.22.89 1.47 0 2.9-.32 4.29-.95 1.39-.64 2.58-1.63 3.59-2.97 1.07-1.45 1.9-3.14 2.48-5.08.59-1.93.88-4.46.88-7.59zm62.47 24.97h-12.53v-22.12h-17.06v22.12h-12.53v-49.9h12.53v18.26h17.06v-18.26h12.53v49.9zm52.44 0h-12.53v-22.12h-17.06v22.12h-12.53v-49.9h12.53v18.26h17.06v-18.26h12.53v49.9zm4.96 0l16.86-49.9h13.67l16.86 49.9h-12.9l-3.12-10.19h-15.68l-3.12 10.19h-12.57zm28.62-19.24l-5.09-16.45-5.09 16.45h10.18z"/><path class="st76" d="M1646.02 154.95h-12.47v-18.3h-4.72l-12.57 18.3h-14.88l14.88-20.68c-3.06-1.32-5.42-3.17-7.09-5.56-1.66-2.39-2.5-5.47-2.5-9.25 0-2.55.56-4.77 1.69-6.67 1.13-1.9 2.56-3.45 4.31-4.66 1.52-1.05 3.37-1.83 5.55-2.33 2.18-.5 4.68-.75 7.49-.75h20.31v49.9zm-12.47-27.28v-13.44h-4.02c-1.94 0-3.44.06-4.49.18-1.05.12-2.07.55-3.05 1.29-.76.56-1.34 1.29-1.74 2.2-.4.91-.6 1.9-.6 3 0 1.14.21 2.16.64 3.07.42.9 1.02 1.65 1.78 2.23.85.67 1.85 1.08 3 1.24 1.15.16 2.66.23 4.54.23h3.94zm-637.1 118.79H981.5l-13.37-20.14h-3.15v20.14h-12.53v-49.9h12.53v20.34c1.97-.09 3.43-.52 4.41-1.31.97-.78 2.13-2.5 3.47-5.16.38-.78.82-1.71 1.32-2.78l1.32-2.82c1.45-3.02 3.22-5.17 5.31-6.45s4.84-1.93 8.26-1.93c1.12 0 2.04.02 2.78.05.74.03 1.31.05 1.71.05v10.69h-2.88c-1.43 0-2.68.44-3.74 1.32-1.06.88-2.14 2.64-3.23 5.28-.87 2.1-1.69 3.69-2.46 4.78-.77 1.08-1.49 1.82-2.16 2.2l17.36 25.64zm49.5-24.93c0 8.07-2.16 14.41-6.47 19.04-4.31 4.62-10.22 6.94-17.73 6.94-7.53 0-13.44-2.34-17.73-7.02s-6.43-11-6.43-18.95c0-8.02 2.14-14.36 6.43-19.02 4.29-4.66 10.2-6.99 17.73-6.99 7.51 0 13.42 2.32 17.73 6.95 4.31 4.63 6.47 10.98 6.47 19.05zm-12.94-.04c0-2.97-.31-5.5-.92-7.59-.61-2.09-1.44-3.8-2.46-5.14-1.07-1.36-2.28-2.34-3.64-2.93s-2.75-.89-4.21-.89c-1.54 0-2.94.27-4.19.82-1.25.55-2.46 1.53-3.62 2.93-1.03 1.3-1.86 3.02-2.5 5.16-.64 2.14-.95 4.7-.95 7.67 0 3.06.3 5.6.9 7.62.6 2.02 1.43 3.71 2.48 5.08 1.07 1.39 2.29 2.37 3.65 2.97 1.36.59 2.77.89 4.22.89 1.47 0 2.9-.32 4.29-.95 1.39-.64 2.58-1.63 3.59-2.97 1.07-1.45 1.9-3.14 2.48-5.08.59-1.93.88-4.46.88-7.59zm71.32 24.97h-12.47v-33.08l-9.08 21.35h-8.55l-9.08-21.35v33.08h-11.8v-49.9h14.44l11.06 24.63 11.03-24.63h14.44v49.9zm52.44 0h-12.53v-40.38h-17.06v40.38h-12.53v-49.9h42.13v49.9zm4.96 0l16.86-49.9h13.67l16.86 49.9h-12.9l-3.12-10.19h-15.68l-3.12 10.19h-12.57zm28.62-19.24l-5.09-16.45-5.09 16.45h10.18zm65.85 19.24h-12.53v-22.12h-17.06v22.12h-12.53v-49.9h12.53v18.26h17.06v-18.26h12.53v49.9zm53.42 0h-12.33v-32.88l-19.17 32.88h-11.6v-49.9h12.33v29.72l17.73-29.72h13.04v49.9zm48.96 0h-12.47v-18.3h-4.72l-12.57 18.3h-14.88l14.88-20.68c-3.06-1.32-5.42-3.17-7.09-5.56-1.66-2.39-2.5-5.47-2.5-9.25 0-2.55.56-4.77 1.69-6.67 1.13-1.9 2.56-3.45 4.31-4.66 1.52-1.05 3.37-1.83 5.55-2.33 2.18-.5 4.68-.75 7.49-.75h20.31v49.9zm-12.46-27.28v-13.44h-4.02c-1.94 0-3.44.06-4.49.18-1.05.12-2.07.55-3.05 1.29-.76.56-1.34 1.29-1.74 2.2-.4.91-.6 1.9-.6 3 0 1.14.21 2.16.64 3.07.42.9 1.02 1.65 1.78 2.23.85.67 1.85 1.08 3 1.24 1.15.16 2.66.23 4.54.23h3.94zM887.88 12.5h11.07v235h-11.07z"/></svg>